<svg width="450" height="375" viewBox="0 0 450 375" fill="none" xmlns="http://www.w3.org/2000/svg">
<path d="M182.421 59.2276L182.429 58.3048C198.664 44.9336 214.084 30.4456 233.315 21.4037C235.512 20.4837 239.548 17.7046 241.903 18.0344C247.028 18.7505 252.244 19.7418 257.336 20.4076C267.066 21.6808 277.48 21.1784 286.632 25.0933C289.146 26.1681 290.271 25.4729 292.085 27.9008C293.146 28.0774 296.223 27.5885 297.292 27.4036C305.022 26.0659 307.089 26.5659 314.371 29.037C315.306 30.5006 313.817 29.94 314.942 30.5144L315.512 29.5251C323.329 29.0327 326.053 29.8312 332.663 33.8422C333.862 34.5698 333.894 34.2286 334.682 35.607L333.942 37.3992C335.411 40.1988 339.113 40.1161 339.676 42.8267C342.02 54.1556 341.774 65.7054 343.343 77.191C343.719 79.974 348.332 90.8793 348.34 90.7047C349.876 92.7534 351.555 93.4276 353.868 94.388L354.391 94.2839C365.693 91.9771 362.006 79.1229 365.312 77.6106C368.389 82.44 366.037 98.5598 363.653 103.572C360.933 113.373 354.43 121.694 345.576 126.706C344.594 127.268 343.604 127.818 342.61 128.356C338.717 131.319 336.428 135.761 333.035 138.885C324.81 146.454 318.668 151.968 312.193 161.254L308.202 159.655L307.996 157.653C307.841 153.85 308.831 148.332 308.701 143.817C308.443 135.124 306.661 127.186 304.99 118.706C307.22 123.137 310.562 130.177 311.588 134.939L312.954 134.049C311.995 123.017 310.748 117.189 308.281 106.507C316.961 119.534 320.442 133.127 318.739 148.704C326.818 135.083 325.835 119.422 320.996 104.902C319.401 104.114 315.357 92.1465 316.098 91.4739C324.671 83.6739 331.538 73.5865 333.316 61.895C333.843 58.4184 335.094 43.6616 331.486 43.0302C330.35 43.7598 330.227 43.9755 329.435 45.0852C330.397 47.3654 330.255 49.0729 328.782 50.9873L328.536 51.3033C328.045 53.1841 329.281 52.3654 328.402 53.5364C331.122 66.1444 322.961 78.2646 313.888 86.2266L312.213 79.4139C311.326 75.0968 308.891 69.0003 307.01 65.03C310.008 65.9033 311.96 66.1147 315.056 66.1626C317.923 65.9144 319.575 65.5569 322.347 64.9496C309.905 60.2592 302.135 52.0954 291.253 45.1612C287.131 42.5361 281.793 40.7163 277.164 39.2772C279.876 42.8675 283.682 46.7384 286.814 50.0697C277.829 47.7356 265.486 44.5903 257.593 39.7562C260.171 38.8707 265.022 37.9934 267.85 37.4277C264.995 36.4566 256.164 34.2872 253.499 34.744C248.497 35.6019 241.552 40.181 236.641 42.2028C230.637 44.675 224.469 46.8009 218.65 49.4953L218.152 50.1952L217.361 50.2399L217.085 49.6612C218.502 46.525 231.392 34.1154 234.638 31.2591C235.973 30.0837 240.832 28.7338 240.925 26.9171C238.69 26.3997 235.928 28.2995 234.01 29.4943C231.223 31.2021 228.598 33.1605 226.167 35.345C221.93 39.1648 206.254 56.0756 201.986 56.2399C199.662 57.73 194.776 60.6987 193.073 62.5494C193.69 62.6729 194.305 62.8016 194.92 62.9354C190.533 67.1555 185.459 71.8807 185.162 78.5489C184.705 80.5057 184.164 83.2064 183.454 85.0215C181.327 86.4443 179.955 87.2764 177.688 88.4565L179.547 88.8152C179.394 88.9597 175.277 92.5729 175.436 92.487C173.876 94.8567 169.995 103.117 166.9 100.964C165.739 98.6298 166.621 97.1239 167.694 94.8726C167.986 93.5163 168.305 92.1663 168.651 90.8235C169.661 88.0721 170.079 87.0405 171.567 84.5357C170.42 85.4075 168.748 86.9075 167.453 87.1018C166.289 87.8694 164.055 88.3085 162.709 87.894C159.868 85.795 161.718 84.5706 160.84 82.607L161.48 82.0825C161.836 80.6086 162.056 77.9222 162.232 76.3185C161.096 77.1071 159.447 78.2492 158.09 78.284L157.849 77.6926C160.893 68.0248 174.333 66.0466 182.421 59.2276Z" fill="#ECF0F2"/>
<path d="M334.444 45.5455C340.693 52.5328 338.171 64.8102 339.129 73.5667C339.846 80.1228 341.327 87.4866 346.257 92.2684C347.809 93.7826 352.019 96.6183 353.868 94.3879L354.391 94.2838C365.693 91.977 362.006 79.1228 365.312 77.6106C368.389 82.4399 366.037 98.5597 363.653 103.572C360.933 113.373 354.43 121.694 345.576 126.706C344.594 127.268 343.604 127.818 342.61 128.356C338.717 131.319 336.428 135.76 333.035 138.885C324.81 146.454 318.668 151.968 312.193 161.254L308.202 159.655L307.996 157.653C307.841 153.85 308.831 148.332 308.701 143.817C308.443 135.124 306.661 127.186 304.99 118.706C307.22 123.137 310.562 130.177 311.588 134.939L312.954 134.049C311.995 123.017 310.748 117.189 308.281 106.507C316.961 119.534 320.442 133.127 318.739 148.704C326.818 135.083 325.835 119.422 320.996 104.902C319.551 100.468 317.999 96.0692 316.343 91.7102C325.317 85.717 330.821 75.2583 333.411 64.9955C335.015 58.6254 334.745 52.051 334.444 45.5455Z" fill="#EE7540"/>
<path d="M342.61 128.356C342.242 127.75 342.147 127.455 341.877 126.81C343.057 124.218 349.397 119.402 351.785 116.946C355.27 113.362 358.216 107.414 361.634 104.312C362.742 104.138 362.588 103.809 363.653 103.572C360.933 113.373 354.43 121.694 345.576 126.706C344.594 127.268 343.604 127.818 342.61 128.356Z" fill="#F6A560"/>
<path d="M312.954 134.049C314.166 136.916 313.069 145.829 312.942 149.038L312.692 146.615C311.809 147.615 312.217 148.453 311.35 149.104C311.196 148.1 311.437 146.61 311.873 145.77C313.191 143.212 311.504 136.134 311.588 134.939L312.954 134.049Z" fill="#DB402F"/>
<path d="M326.022 102.553C330.176 105.805 337.549 121.491 339.351 126.73L337.145 129.865C336.369 130.739 336.361 130.744 335.387 131.388C334.9 130.84 334.405 127.285 334.282 126.257C333.241 117.533 329.819 110.398 326.022 102.553Z" fill="#151216"/>
<path d="M182.421 59.2276L182.429 58.3048C198.664 44.9336 214.084 30.4456 233.315 21.4037C235.512 20.4837 239.548 17.7046 241.903 18.0344C247.028 18.7505 252.244 19.7418 257.336 20.4076C267.066 21.6808 277.48 21.1784 286.632 25.0933C289.146 26.1681 290.271 25.4729 292.085 27.9008C293.146 28.0774 296.223 27.5885 297.292 27.4036C305.022 26.0659 307.089 26.5659 314.371 29.037C315.306 30.5006 313.817 29.94 314.942 30.5144L315.512 29.5251C323.329 29.0327 326.053 29.8312 332.663 33.8422C333.862 34.5698 333.894 34.2286 334.682 35.607L333.942 37.3992C335.411 40.1988 339.113 40.1161 339.676 42.8267C342.02 54.1556 341.774 65.7053 343.343 77.191C343.719 79.974 348.332 90.8793 348.34 90.7047C349.876 92.7534 351.555 93.4276 353.868 94.388C352.019 96.6184 347.809 93.7827 346.257 92.2685C341.327 87.4866 339.846 80.1229 339.129 73.5667C338.171 64.8103 340.693 52.5329 334.444 45.5456C334.745 52.0511 335.015 58.6254 333.411 64.9955C330.821 75.2583 325.317 85.717 316.343 91.7103C317.999 96.0693 319.551 100.468 320.996 104.902C319.401 104.114 315.357 92.1465 316.098 91.4739C324.671 83.6739 331.538 73.5865 333.316 61.895C333.843 58.4184 335.094 43.6616 331.486 43.0302C330.35 43.7598 330.227 43.9755 329.435 45.0852C330.397 47.3654 330.255 49.0729 328.782 50.9873L328.536 51.3033L328.885 48.4854C328.92 37.0457 315.951 29.4278 305.588 29.7975C295.926 30.1423 288.893 33.7092 279.856 35.9376C283.856 32.4725 287.194 30.6779 291.804 28.062C277.781 22.3316 272.665 22.6052 257.629 21.2406C252.509 20.7754 245.884 19.1586 240.581 18.7897C228.216 24.9052 220.102 28.847 209.041 37.4221C203.976 41.3742 199.025 45.4704 194.195 49.7059C192.365 51.2827 184.307 58.3448 182.421 59.2276Z" fill="#163C60"/>
<path d="M331.027 38.1117C333.229 39.154 336.163 40.4418 338.234 41.6022C342.321 54.5803 339.81 83.7396 348.34 90.7047C349.876 92.7533 351.555 93.4275 353.868 94.3879C352.019 96.6183 347.809 93.7826 346.257 92.2684C341.327 87.4866 339.846 80.1228 339.129 73.5667C338.171 64.8102 340.693 52.5328 334.444 45.5455C333.3 42.8179 332.369 40.7578 331.027 38.1117Z" fill="#FDFCFB"/>
<path d="M201.986 56.2398C206.82 52.4473 211.465 48.4196 215.903 44.1714C226.25 34.1019 234.104 23.5354 250.18 25.9923C249.646 26.8961 249.804 26.6118 248.553 27.075C235.788 27.9443 227.909 39.0745 219.633 47.6651C219.018 48.3036 218.747 48.6148 218.65 49.4952L218.152 50.1951L217.361 50.2399L217.085 49.6611C218.502 46.5249 231.392 34.1153 234.638 31.259C235.973 30.0837 240.832 28.7337 240.925 26.917C238.69 26.3996 235.928 28.2995 234.01 29.4942C231.223 31.202 228.598 33.1605 226.167 35.3449C221.93 39.1648 206.254 56.0755 201.986 56.2398Z" fill="#163C60"/>
<path d="M312.213 79.4138C311.326 75.0967 308.891 69.0002 307.01 65.0299C310.008 65.9032 311.96 66.1146 315.056 66.1625C313.274 69.7967 314.059 74.683 312.213 79.4138Z" fill="#D1E6F0"/>
<path d="M167.694 94.8725C169.845 94.0055 173.184 92.6706 175.436 92.4869C173.876 94.8567 169.995 103.117 166.9 100.964C165.739 98.6298 166.621 97.1239 167.694 94.8725Z" fill="#D85D50"/>
<path d="M168.651 90.8235C171.18 91.8611 175.529 89.5579 177.688 88.4565L179.547 88.8152C179.394 88.9597 175.277 92.5729 175.436 92.487C173.184 92.6707 169.845 94.0056 167.694 94.8726C167.985 93.5163 168.305 92.1663 168.651 90.8235Z" fill="#161629"/>
<path d="M167.453 87.1018C166.289 87.8694 164.055 88.3084 162.709 87.8939C159.868 85.795 161.718 84.5705 160.84 82.607L161.48 82.0824C162.916 82.031 164.433 81.7372 165.476 82.4633C165.385 84.2016 163.881 84.4684 163.991 86.3769L164.521 86.8595C165.826 86.6715 166.311 86.4328 167.453 87.1018Z" fill="#161629"/>
<path d="M320.842 42.1592C324.204 44.2158 325.998 45.8769 328.885 48.4853L328.536 51.3032C328.045 53.184 329.281 52.3653 328.402 53.5364C328.105 53.1694 326.707 50.3733 326.259 49.5879C324.552 46.5819 323.123 44.7276 320.842 42.1592Z" fill="#142532"/>
<path d="M250.18 25.9923C251.127 26.1423 252.228 26.1958 252.937 26.7694C251.174 27.2476 250.371 27.1372 248.553 27.075C249.804 26.6119 249.646 26.8961 250.18 25.9923Z" fill="#8295A9"/>
<path d="M342.463 178.618C355.222 185.792 380.804 201.818 384.257 216.389L374.709 209.878C378.297 215.516 378.543 223.534 373.114 228.162C372.357 228.818 370.753 230.123 370.203 230.849L369.055 230.932C368.666 230.648 365.392 221.963 364.524 220.232C364.429 222.707 364.421 223.456 363.736 225.804C353.417 236.413 341.109 242.595 327.946 248.812C323.867 250.74 319.694 253.243 315.619 255.113C317.876 252.371 326.921 247.079 330.287 244.585C337.236 239.433 343.592 232.49 350.158 227.333C335.312 233.429 318.791 238.241 306.352 248.223C312.506 245.98 315.829 244.984 322.137 243.519C316.316 246.623 310.558 249.713 304.97 253.242C299.514 256.689 294.116 260.896 288.414 263.884C286.6 264.692 283.254 266.067 281.706 267.099C279.947 267.999 279.999 267.715 277.659 267.125C277.71 264.408 284.529 259.985 286.798 258.683C300.25 250.961 307.156 237.585 317.931 227.613C326.778 219.43 345.37 218.645 357.416 219.957C347.291 213.093 337.648 210.921 326.271 207.212C332.825 207.186 356.517 211.724 363.023 213.937C349.655 205.834 337.902 202.363 323.705 196.701C325.558 194.215 327.162 192.336 329.19 190.009C333.241 185.801 337.292 181.463 342.463 178.618Z" fill="#EAEDEE"/>
<path d="M342.463 178.618C355.222 185.792 380.804 201.818 384.257 216.389L374.709 209.878C378.297 215.516 378.543 223.534 373.113 228.162C371.438 225.69 374.23 219.801 368.56 213.204C365.336 209.509 361.535 206.36 357.305 203.879C353.06 201.387 330.271 191.882 329.19 190.009C333.241 185.801 337.292 181.463 342.463 178.618Z" fill="#FDFCFB"/>
<path d="M69.6054 194.774C74.5114 192.676 81.3646 190.601 86.5418 188.863C94.4689 186.187 102.37 183.435 110.244 180.606C139.461 170.101 168.763 159.835 198.148 149.81C214.747 144.239 239.309 137.15 253.907 129.142C267.6 121.63 274.008 102.253 276.376 88.0724C276.906 84.8927 278.399 81.7206 279.084 78.4126C279.449 80.5911 279.821 81.9838 280.431 84.1168C280.387 86.6588 279.48 94.8962 279.86 96.3693C279.868 104.089 280.031 119.329 282.545 126.424C281.741 127.85 282.213 127.467 280.838 127.988C279.041 122.987 276.57 118.571 274.669 112.974L274.237 112.994L273.814 113.99C274.895 119.213 274.649 123.594 275.449 128.283C276.435 130.196 277.627 132.1 277.346 134.255C275.041 136.793 269.03 133.133 265.826 134.936L265.561 135.625C266.674 137.362 285.487 141.712 286.877 148.186L286.323 148.76C283.991 148.349 281.638 146.69 279.389 145.849C274.063 143.855 268.745 142.65 263.034 142.5C259.605 142.409 256.2 142.963 252.853 142.171C245.813 143.131 238.66 145.356 231.827 147.352C221.362 150.47 210.926 153.687 200.522 157.003C167.42 167.468 134.201 177.56 100.871 187.277C92.0232 189.795 77.6739 194.961 69.3081 196.695L69.158 196.341L69.8355 195.745L69.6054 194.774Z" fill="#EBF2F5"/>
<path d="M255.982 134.321C256.829 133.808 257.657 133.261 258.465 132.681C263.205 129.217 272.978 119.546 273.814 113.99C274.895 119.213 274.649 123.594 275.449 128.283C275.786 130.715 276.178 132.249 276.807 134.639C266.008 132.306 265.062 134.196 255.982 134.321Z" fill="#1894D0"/>
<path d="M275.449 128.283C276.435 130.196 277.627 132.1 277.346 134.255C275.041 136.793 269.03 133.133 265.826 134.936L265.561 135.625C266.674 137.362 285.487 141.712 286.877 148.186L286.323 148.76C283.991 148.349 281.638 146.69 279.389 145.849C274.063 143.855 268.745 142.65 263.034 142.5C259.605 142.409 256.2 142.963 252.853 142.171C265.573 140.213 273.92 143.107 285.412 147.241C279.995 141.921 271.988 138.913 264.745 136.728C262.662 136.099 256.576 136.37 255.297 135.354L255.982 134.321C265.062 134.196 266.008 132.306 276.807 134.639C276.178 132.249 275.786 130.715 275.449 128.283Z" fill="#163C60"/>
<path d="M142.673 271.982C151.476 258.272 162.17 253.525 177.236 249.21C194.746 244.194 195.408 232.988 204.983 219.854L213.226 225.582C217.014 228.071 220.726 230.241 224.455 232.637C217.986 236.64 212.787 240.19 207.03 245.226C202.289 249.375 196.083 256.204 190.601 259.365C188.078 260.806 185.209 262.563 182.548 263.634C184.362 259.773 186.694 255.113 188.063 251.162C184.577 253.984 181.424 256.533 178.209 259.663C170.28 268.362 160.769 277.581 148.104 277.939C146.488 277.984 145.339 278.087 143.809 277.473C143.997 275.746 144.073 275.547 144.956 274.05C144.337 273.585 143.284 272.546 142.673 271.982Z" fill="#FDFCFB"/>
<path d="M213.226 225.582C217.014 228.071 220.726 230.241 224.455 232.637C217.986 236.64 212.787 240.19 207.03 245.226C202.289 249.375 196.083 256.204 190.601 259.365C190.488 258.59 190.367 257.771 190.855 257.086C193.652 253.19 196.507 249.351 199.205 245.383C202.753 240.169 206.026 234.753 209.739 229.652C210.792 228.204 212.001 226.885 213.226 225.582Z" fill="#A9C4D7"/>
<path d="M151.966 267.304C163.245 269.234 171.145 258.846 178.209 259.663C170.28 268.362 160.769 277.582 148.104 277.939C146.488 277.984 145.339 278.087 143.809 277.473C143.997 275.746 144.073 275.547 144.956 274.05C146.968 271.487 149.327 269.217 151.966 267.304Z" fill="#C6D7DF"/>
<path d="M193.066 105.956C193.955 105.014 195.503 103.993 196.68 103.695C203.171 102.053 268.087 77.9412 270.04 79.1723C270.186 81.4855 268.087 86.4945 267.489 88.8916C267.149 90.2566 264.009 92.7736 263.205 94.3765C263.91 95.8202 264.032 95.4826 263.771 96.7308C261.827 98.0455 256.382 97.4152 254.441 95.7759C252.711 95.7169 251.028 96.3769 249.479 97.1195C248.87 96.8147 247.785 96.2593 247.08 96.4909C237.74 99.5653 228.303 102.558 218.856 105.295C215.856 106.165 207.271 109.478 204.876 108.708C201.568 109.467 198.131 110.674 194.879 111.69C182.144 115.667 169.308 119.373 156.51 123.145L114.27 135.923C107.318 137.997 96.0164 140.94 89.4745 143.326L88.6144 143.229L88.0355 142.308C95.1139 140.135 102.701 137.32 109.751 134.89L148.468 121.519C162.212 116.722 179.841 111.21 193.066 105.956Z" fill="#EAEDEE"/>
<path d="M193.066 105.956C193.955 105.014 195.503 103.993 196.68 103.695C203.171 102.053 268.087 77.9412 270.04 79.1723C270.186 81.4855 268.087 86.4945 267.489 88.8916C267.149 90.2566 264.009 92.7736 263.205 94.3765C263.91 95.8202 264.032 95.4826 263.771 96.7308C261.827 98.0455 256.382 97.4152 254.441 95.7759C252.711 95.7169 251.028 96.3769 249.48 97.1195C248.87 96.8147 247.785 96.2593 247.08 96.4909C237.74 99.5653 228.303 102.558 218.856 105.295C215.856 106.165 207.271 109.478 204.876 108.708C210.29 106.582 222.521 103.326 228.573 101.462C241.078 97.61 253.899 93.3872 266.428 89.7835C267.47 86.3587 268.432 82.7796 269.406 79.324C261.28 82.5021 252.747 85.1739 244.501 88.0511L193.066 105.956Z" fill="#163C60"/>
<path d="M443.165 61.414C445.232 58.5898 448.555 57.087 449.533 61.5601L449.561 62.0193C451.303 71.0909 445.739 81.5563 443.276 89.926C441.823 94.8464 441.633 101.159 440.659 106.263C437.815 121.174 434.778 140.557 422.906 151.483C407.015 149.463 409.276 147.867 397 141.014C381.37 132.289 373.414 130.535 363.899 113.094C370.666 116.015 373.985 121.258 379.493 125.709C384.435 129.56 390.054 132.43 395.301 135.819C400.346 139.078 404.536 143.164 409.905 145.908C419.243 150.678 422.581 143.909 426.605 136.855C427.06 136.399 427.266 135.897 427.587 135.318C427.508 133.907 427.709 134.445 426.759 133.305L426.339 133.617L425.5 133.88C425.274 133.393 425.076 132.971 424.672 132.609C423.948 133.379 423.472 134.597 422.478 134.342L421.979 134.456C421.702 133.574 429.353 117.501 430.489 114.963C434.461 104.867 437.11 92.0119 442.611 83.5397C440.829 83.3714 439.106 82.9843 437.352 82.6311C437.039 80.5508 436.39 78.1312 437.376 76.3557C438.797 75.2159 438.801 75.5251 440.849 75.1799C442.254 73.7935 443.668 72.0972 444.979 70.5936C444.615 69.9369 444.238 69.2856 443.85 68.6412C442.536 67.9587 443.066 68.1313 441.435 68.2785C440.781 65.6693 441.7 63.5113 443.165 61.414Z" fill="#EE7540"/>
<path d="M435.732 109.525C433.855 116.429 430.703 127.354 426.759 133.305L426.339 133.617L425.5 133.88C425.274 133.393 425.076 132.971 424.672 132.609C423.948 133.378 423.472 134.597 422.478 134.342L421.979 134.456C421.702 133.574 429.353 117.501 430.489 114.963L432.592 115.211C433.709 112.813 434.271 111.716 435.732 109.525Z" fill="#0A0302"/>
<path d="M422.478 134.342L421.979 134.456C421.702 133.574 429.353 117.501 430.489 114.963L432.592 115.211C430.208 120.982 427.63 126.343 424.252 131.606C423.71 132.452 422.926 133.502 422.478 134.342Z" fill="#D5896D"/>
<path d="M443.165 61.414C445.232 58.5898 448.555 57.087 449.533 61.5601L449.561 62.0193C449.081 63.876 449.184 64.2916 447.026 64.309C444.777 65.5078 442.381 67.8755 441.435 68.2785C440.781 65.6693 441.7 63.5113 443.165 61.414Z" fill="#F0CA92"/>
<path d="M443.165 61.414C445.232 58.5898 448.555 57.087 449.533 61.5601C448.131 62.224 445.264 62.4429 443.747 62.2101L443.165 61.414Z" fill="#F4E6CE"/>
<path d="M447.026 64.3091C448.963 66.4025 446.424 68.7148 444.979 70.5937C444.615 69.9369 444.238 69.2857 443.85 68.6412C442.536 67.9587 443.066 68.1313 441.435 68.2786C442.381 67.8756 444.777 65.5078 447.026 64.3091Z" fill="#151216"/>
<path d="M301.209 163.815C318.422 166.517 321.428 169.067 337.07 175.582C334.627 176.953 333.059 177.877 330.738 179.522C327.629 182.186 325.693 184.067 322.83 186.982L319.804 191.338C311.295 187.82 302.44 185.214 293.38 183.565L293.807 181.281C296.33 181.12 298.848 180.916 301.363 180.669C300.904 179.712 299.878 179.376 298.892 178.873C297.082 178.919 269.501 174.917 268.955 174.67L269.327 173.972C275.057 170.498 289.333 169.185 295.498 167.373L295.118 166.839L300.856 167.25C300.373 165.907 299.941 165.432 300.234 164.222L301.209 163.815Z" fill="#EE5A2F"/>
<path d="M301.208 163.815C318.422 166.517 321.428 169.067 337.07 175.582C334.627 176.953 333.058 177.877 330.738 179.522C330.1 179.099 329.538 178.488 328.988 177.947C322.133 173.443 308.879 169.118 300.856 167.25C300.373 165.907 299.941 165.432 300.234 164.222L301.208 163.815Z" fill="#FDFCFB"/>
<path d="M328.988 177.947C329.538 178.488 330.1 179.099 330.738 179.522C327.629 182.186 325.693 184.067 322.83 186.982C322.509 184.14 326.897 179.617 328.988 177.947Z" fill="#F0CA92"/>
<path d="M298.892 178.873C301.137 179.356 303.398 179.817 305.62 180.403C304.333 180.532 302.61 180.779 301.363 180.669C300.904 179.712 299.878 179.376 298.892 178.873Z" fill="#892B25"/>
<path d="M370.017 100.786C371.284 93.9549 373.062 81.7622 370.349 75.2943C379.465 79.4431 385.08 83.6545 388.739 93.3571C389.488 95.3848 390.213 97.4208 390.914 99.4647C398.449 102.684 403.237 105.498 407.561 112.918C407.054 114.762 405.411 126.182 405.458 126.137C405.011 125.837 404.409 125.469 404.017 125.124C402.168 123.594 398.525 121.801 396.327 120.744C386.32 115.934 381.481 113.112 375.09 103.889C376.483 102.987 378.091 102.277 379.596 101.556C382.233 100.356 383.556 99.9121 386.32 99.0954C379.659 96.8606 376.123 97.8139 370.017 100.786Z" fill="#FDFCFB"/>
<path d="M375.09 103.889C376.483 102.987 378.091 102.277 379.596 101.556C384.19 107.918 404.912 116.278 404.017 125.124C402.168 123.594 398.525 121.801 396.327 120.744C386.32 115.934 381.481 113.112 375.09 103.889Z" fill="#EAEDEE"/>
<path d="M26.8806 332.849C37.0225 338.442 47.7342 342.528 57.2694 347.873L56.8587 348.472C59.2798 349.75 62.6371 350.179 63.7728 352.122C64.0484 353.482 63.976 353.689 63.6247 355.043C64.1922 355.507 63.9086 355.443 64.5177 355.54C67.5641 357.821 73.6113 362.376 77.1575 363.395L79.0278 363.668C80.9856 367.219 82.8757 370.449 85.4683 373.6C75.1803 373.422 64.7228 373.909 54.3089 373.822C48.3484 374.345 16.005 374.202 11.2906 373.074C18.6051 372.235 31.3799 371.067 38.5134 371.011C41.8469 370.267 51.4981 369.432 55.3009 369.02C55.6339 368.41 56.0014 368.019 56.4457 367.492C55.7369 366.898 55.4537 366.51 54.8807 365.814C52.6105 364.428 43.6206 360.989 40.7334 359.838L41.2066 358.171C48.9408 359.818 56.6516 361.574 64.3359 363.438C60.9909 360.122 57.585 357.967 54.1145 355.057C46.0104 348.262 34.087 340.112 26.8806 332.849Z" fill="#EE5A2F"/>
<path d="M54.3089 373.822C48.3484 374.345 16.005 374.202 11.2906 373.074C18.6051 372.235 31.3799 371.067 38.5134 371.011C36.2942 371.799 33.2166 371.866 31.4904 372.923H31.8599C34.4236 372.923 36.5326 373.276 38.9708 373.359C43.4665 373.509 49.8931 373.086 54.3089 373.822Z" fill="#892B25"/>
<path d="M54.8807 365.813C56.9585 366.661 59.283 367.555 61.3006 368.494C59.3622 368.66 57.2143 368.798 55.3009 369.02C55.6339 368.41 56.0014 368.019 56.4457 367.492C55.7369 366.898 55.4537 366.51 54.8807 365.813Z" fill="#380B0A"/>
<path d="M30.8172 309.89C36.5053 315.251 45.1891 321.66 51.426 326.576C56.806 330.817 63.6021 336.975 68.9453 340.816C67.0413 334.605 59.3182 316.31 56.0481 310.848L57.1014 310.082C63.4948 319.943 71.2698 330.994 78.0188 340.801C77.9831 350.249 76.3888 353.995 79.0278 363.668L77.1575 363.395C73.6113 362.376 67.5641 357.821 64.5177 355.54C63.9086 355.443 64.1922 355.507 63.6247 355.043C63.9759 353.689 64.0484 353.482 63.7728 352.122C62.6371 350.179 59.2798 349.75 56.8587 348.472L57.2694 347.873L62.5424 349.861C60.701 347.509 58.8011 344.578 56.8555 342.423C47.9635 332.573 39.5248 320.153 30.0502 311.012L30.8172 309.89Z" fill="#EE7540"/>
<path d="M67.9114 349.699C70.521 352.737 77.4137 359.787 77.1575 363.395C73.6114 362.376 67.5641 357.821 64.5177 355.54L64.9901 354.609C64.7208 352.385 64.41 352.016 66.4953 351.184L66.7844 351.241C67.0818 350.521 67.3918 350.264 67.9114 349.699Z" fill="#FDFCFB"/>
<path d="M64.9901 354.609C64.7209 352.385 64.41 352.016 66.4953 351.184L66.7844 351.241C67.3178 352.672 67.9268 353.525 67.6667 354.819C66.5753 355.211 66.1754 354.953 64.9901 354.609Z" fill="#EE5A2F"/>
<path d="M64.1454 345.064C65.4174 346.595 66.6731 348.14 67.9114 349.699C67.3918 350.264 67.0818 350.521 66.7844 351.241L66.4953 351.184C66.268 350.065 64.6547 346.317 64.1454 345.064Z" fill="#F4E6CE"/>
<path d="M392.573 25.7607C396.343 28.1914 400.936 31.7994 404.449 33.8105C403.926 38.0211 403.3 41.8983 402.58 46.0828L402.738 47.0934C400.754 48.1104 401.546 46.2755 400.176 47.9929C399.431 50.768 401.201 53.5799 399.716 58.9318L399.17 59.5715C398.275 59.5775 392.276 57.1448 390.826 56.6599C391.686 58.5454 393.666 61.3281 392.006 62.811C390.458 63.0969 388.098 62.3098 386.49 61.8886C387.809 63.4607 389.5 65.0711 390.965 66.5374C389.551 66.3336 386.898 65.461 385.983 65.9777C386.364 69.1051 388.454 69.8882 384.221 72.881C382.673 73.9732 380.685 71.9693 380.479 70.5259C379.568 64.0656 382.297 58.6444 385.314 53.1947C380.499 43.101 378.321 38.9454 391.519 35.9581C391.686 32.5362 391.951 29.1304 392.573 25.7607Z" fill="#FDFCFB"/>
<path d="M392.933 40.0875C396.976 41.1034 398.802 42.8104 401.475 45.9754L401.776 46.3392L402.58 46.0827L402.738 47.0934C400.754 48.1104 401.546 46.2755 400.176 47.9928C399.431 50.768 401.202 53.5799 399.717 58.9318C399.289 55.5054 399.57 51.8614 399.008 47.7589L394.323 49.7153C392.509 45.3697 391.119 44.3092 387.492 41.428L392.933 40.0875Z" fill="#163C60"/>
<path d="M373.114 228.162C378.543 223.534 378.297 215.516 374.709 209.878L384.257 216.389C383.734 222.169 382.518 229.909 377.735 233.767C374.373 236.482 368.833 238.518 364.956 240.858C359.056 244.421 353.199 248.774 347.164 252.016C334.294 258.934 321.147 264.497 308.154 271.28L307.754 269.504C314.043 265.349 319.725 262.065 326.382 258.216C336.448 252.394 348.435 246.689 357.143 238.898C359.004 237.23 361.602 232.345 363.146 230.062C364.184 229.086 364.053 227.056 363.736 225.804C364.421 223.456 364.429 222.707 364.524 220.232C365.392 221.963 368.666 230.648 369.055 230.932L370.203 230.85C370.753 230.123 372.357 228.818 373.114 228.162Z" fill="#E8582F"/>
<path d="M363.736 225.804C364.421 223.456 364.429 222.707 364.524 220.232C365.392 221.963 368.666 230.648 369.055 230.932L370.203 230.85L370.48 230.811C369.997 232.973 362.647 237.122 360.604 238.319C362.164 235.167 362.54 233.516 363.146 230.062C364.184 229.086 364.053 227.056 363.736 225.804Z" fill="#151216"/>
<path d="M103.937 206.776C110.624 205.048 119.487 201.787 126.266 199.602C141.714 194.711 157.128 189.711 172.506 184.603C182.983 181.171 193.78 178.031 204.286 174.609C210.186 172.687 216.676 171.051 222.441 168.929C221.441 171.936 220.809 173.864 220.165 176.998C200.365 181.421 177.377 188.391 157.495 193.745L123.795 202.87C117.774 204.491 109.84 206.369 104.103 208.296C103.662 207.393 103.764 207.877 103.937 206.776Z" fill="#FDFCFB"/>
<path d="M246.24 104.07C251.887 102.036 257.669 100.374 263.236 98.3911L260.262 107.632C258.667 107.996 256.623 108.529 255.055 108.808C246.086 112.301 227.878 116.711 218.019 119.309C200.604 123.899 183.234 129.085 165.916 133.673L165.783 133.378C166.472 132.56 166.464 132.433 166.782 131.384C184.571 125.339 202.322 119.18 220.034 112.909C228.745 109.904 237.544 107.167 246.24 104.07Z" fill="#EE7540"/>
<path d="M246.24 104.07C251.887 102.036 257.669 100.374 263.236 98.3911L260.263 107.632C258.667 107.996 256.623 108.529 255.055 108.808L254.885 108.388C255.847 107.961 256.493 107.714 257.494 107.387C257.316 106.639 256.477 105.609 256.006 104.941L255.621 105.045C249.254 106.735 251.737 104.658 246.24 104.07Z" fill="#F6A560"/>
<path d="M184.472 279.542C191.813 275.564 198.563 272.14 206.129 268.683C212.402 265.817 213.631 262.523 221.224 261.23C218.916 264.759 215.826 269.557 212.119 271.675C204.098 276.136 194.898 277.179 186.592 281.271C181.162 283.946 177.335 288.391 172.384 291.331C155.847 301.15 139.448 310.182 125.037 323.172L123.664 322.416C126.002 319.948 128.37 317.514 131.015 315.37C137.38 310.207 143.811 305.121 150.232 300.028C156.202 295.293 163.064 291.792 169.257 287.377C175.789 282.721 181.785 277.252 188.742 273.201C187.414 275.145 185.656 277.564 184.472 279.542Z" fill="#DB402F"/>
<path d="M83.4162 311.14C84.1813 305.525 86.2915 304.265 91.4743 305.187C91.3999 306.496 91.3456 308.394 91.1932 309.645C92.69 310.482 93.2706 310.898 93.2547 312.665C92.5894 315.84 93.3446 319.132 92.5399 322.032L92.5673 321.603L91.5416 322.949L91.0035 322.845C91.3052 327.827 92.6322 332.726 92.2227 337.703C91.9855 340.581 90.4653 343.336 89.789 346.107C85.5463 363.494 92.1349 367.512 105.884 374.76C94.0432 373.331 84.6272 368.755 84.2692 355.282C83.2796 349.688 86.0745 342.562 85.6263 337.237C85.2117 332.31 83.6597 328.021 83.2661 322.584C83.12 319.434 82.922 314.157 83.4162 311.14Z" fill="#EAEDEE"/>
<path d="M83.2661 322.584C84.348 322.542 86.4887 322.354 87.3876 322.787C93.2444 339.707 85.2441 342.795 84.2692 355.282C83.2796 349.688 86.0745 342.561 85.6263 337.237C85.2117 332.31 83.6597 328.021 83.2661 322.584Z" fill="#55B8E1"/>
<path d="M91.1932 309.645C92.69 310.482 93.2706 310.897 93.2547 312.665C92.5894 315.84 93.3446 319.132 92.5399 322.032L92.5673 321.603L91.5416 322.948L91.0035 322.845C90.3109 318.025 90.7489 314.45 91.1932 309.645Z" fill="#151216"/>
<path d="M83.2661 322.584C83.12 319.434 82.922 314.157 83.4162 311.14C83.2249 318.343 85.2311 316.37 87.3876 322.787C86.4887 322.354 84.348 322.542 83.2661 322.584Z" fill="#A9C4D7"/>
<path d="M260.46 204.552C239.575 200.009 226.658 183.678 234.699 162.056C237.613 154.222 244.202 150.02 251.602 146.929C239.752 159.392 234.808 173.14 245.025 188.87C251.828 199.344 261.268 201.715 272.827 203.993C275.057 204.21 276.894 204.527 279.104 204.92C277.084 205.1 274.293 205.262 272.352 205.553C269.949 205.556 268.428 205.523 266.052 205.259C264.595 205.233 261.997 204.778 260.46 204.552Z" fill="#179DDD"/>
<path d="M272.827 203.993C275.057 204.21 276.894 204.527 279.104 204.92C277.084 205.1 274.293 205.262 272.352 205.553C269.949 205.556 268.428 205.523 266.052 205.259C268.087 205.19 271.283 205.337 272.827 203.993Z" fill="#1894D0"/>
<path d="M126.91 342.581L128.069 344.1C125.018 348.318 121.482 353.006 118.744 357.378C120.397 356.918 122.234 356.505 123.73 355.698L125.476 357.924L125.507 357.978C126.945 358.685 136.204 355.375 138.312 354.694C135.853 357.501 132.786 356.505 130.406 358.419C130.568 359.302 131.141 359.453 132.04 360.132L133.01 360.17L132.382 360.35L132.601 360.47L133.197 360.113L133.562 360.364L133.249 360.658L132.665 360.461L132.522 360.637L133.08 360.646L132.267 361.03L132.959 360.616C131.971 361.143 131.466 362.384 131.731 363.466C134.629 362.674 138.539 359.28 140.247 360.245C137.324 362 132.603 363.996 129.376 365.453C135.018 364.42 140.817 364.175 146.538 363.601C153.709 362.876 160.885 361.921 168.047 361.205C169.511 361.276 170.811 361.325 172.282 361.32C170.994 361.789 169.33 362.346 168.095 362.86C150.444 365.901 135.402 369.515 117.194 372.155C116.151 366.783 114.971 364.796 111.843 360.451C114.014 356.185 123.176 346.662 126.91 342.581Z" fill="#EE5A2F"/>
<path d="M136.53 282.447C137.682 283.034 137.902 282.9 138.115 284.363L140.099 284.996C145.121 285.555 150.199 285.332 155.152 284.338C147.433 289.017 134.409 296.626 127.415 302.288C128.929 303.968 129.034 302.417 129.391 303.67L128.511 303.998C127.562 305.08 112.767 320.058 112.573 320.166L111.808 319.948C109.409 316.706 111.927 308.549 113.703 305.416C114.97 303.182 119.91 300.083 122.069 298.041C127.236 293.174 132.067 287.964 136.53 282.447Z" fill="#FDFCFB"/>
<path d="M140.099 284.996C145.121 285.554 150.199 285.332 155.152 284.338C147.433 289.017 134.409 296.626 127.415 302.287L127.004 302.244C126.714 300.824 127.219 300.064 127.788 298.698C130.556 296.501 138.703 288.085 140.099 284.996Z" fill="#EAEDEE"/>
<path d="M121.277 306.443C121.453 302.181 124.438 300.653 127.788 298.698C127.219 300.064 126.714 300.824 127.004 302.244C125.201 303.778 123.223 305.093 121.277 306.443Z" fill="#D1E6F0"/>
<path d="M127.004 302.244L127.415 302.288C128.929 303.968 129.034 302.417 129.391 303.67L128.511 303.998C126.372 304.716 121.203 307.816 118.985 309.08L118.694 308.413L121.277 306.444C123.223 305.093 125.201 303.778 127.004 302.244Z" fill="#163C60"/>
<path d="M118.985 309.08C118.262 309.856 116.283 310.97 115.192 310.968C115.736 309.821 117.476 309.099 118.694 308.413L118.985 309.08Z" fill="#A09EA7"/>
<path d="M254.849 293.086C252.133 289.533 244.978 277.923 250.529 273.57C251.024 273.181 253.325 272.377 254.045 272.114C255.122 282.633 261.367 288.838 266.111 297.691C269.561 304.129 270.986 311.673 275.002 317.832C278.047 322.603 280.435 324.509 284.379 328.051C287.638 330.978 293.087 333.681 295.76 336.052C285.412 334.151 276.974 328.059 270.539 319.719C268.115 316.579 266.955 312.684 265.454 309.088C262.896 302.639 258.682 298.87 254.849 293.086Z" fill="#EAEDEE"/>
<path d="M254.849 293.086C255.602 291.686 255.115 289.439 254.932 287.747C258.235 291.546 266.662 300.972 266.571 306.568C266.563 307.04 265.727 308.585 265.454 309.087C262.896 302.639 258.682 298.87 254.849 293.086Z" fill="#5FB4D4"/>
<path d="M185.162 78.5488C189.13 72.2508 192.024 71.2033 197.211 66.9163C209.897 56.433 224.47 55.0669 238.788 48.3694C241.769 46.9755 246.525 42.759 249.452 40.5234C237.601 58.1108 232.652 55.2272 214.848 60.9211C209.226 62.7418 203.894 65.3569 199.013 68.6875C190.709 74.2852 190.48 76.6446 189.791 86.565C189.437 91.6433 182.1 101.796 176.977 101.035C175.764 98.4125 183.269 91.8528 184.068 87.774L183.718 87.0915C182.426 86.9811 180.643 88.0895 179.547 88.8152L177.688 88.4565C179.955 87.2764 181.327 86.4443 183.454 85.0215C184.164 83.2064 184.705 80.5057 185.162 78.5488Z" fill="#DB402F"/>
<path d="M169.398 146.501C188.617 140.443 207.494 132.949 226.634 126.637C235.045 123.862 247.535 118.728 256.105 117.121C253.408 119.891 248.969 124.811 245.624 126.434C238.233 130.021 228.748 131.924 220.647 134.074C203.951 138.504 187.753 142.979 171.175 147.789C169.847 147.954 168.813 148.07 167.458 148.125L167.514 147.68L169.398 146.501Z" fill="#1894D0"/>
<path d="M373.62 3.20819L374.393 3.85391C375.988 5.22009 376.966 5.54712 379.065 5.82459C377.596 6.09898 376.515 6.20365 375.192 6.90218C371.981 6.79806 368.809 6.82221 365.728 7.86971L365.601 8.31428L366.528 8.38039C372.373 7.99956 381.54 15.1163 383.746 19.9666C380.804 20.3712 369.435 8.71768 364.089 12.4868L366.698 12.2177L367.13 12.8111C366.061 14.3447 365.483 16.0605 365.399 17.9223C365.17 23.1835 359.555 22.6277 357.234 24.6962C354.185 27.4103 355.848 36.1814 350.993 38.9965C349.975 39.5836 349.758 39.4783 348.72 39.2309L348.316 38.4257C348.209 36.1426 349.694 34.5449 349.872 32.7072C351.025 20.8352 353.963 7.38436 367.015 3.54021C368.627 3.06552 371.498 3.81416 373.62 3.20819Z" fill="#163C60"/>
<path d="M374.393 3.85388C375.988 5.22006 376.966 5.5471 379.065 5.82457C377.596 6.09895 376.515 6.20362 375.192 6.90215C371.981 6.79804 368.809 6.82218 365.728 7.86968L365.601 8.31425L366.528 8.38037C371.403 9.86927 373.3 10.9251 377.366 14.0981L375.977 14.471C369.847 10.5035 366.271 9.73111 360.089 13.8075C358.351 14.9215 356.85 16.1503 355.713 17.9135C355.143 19.0735 354.715 20.3716 353.674 20.9867L352.945 20.7658C356.965 6.87761 361.475 5.75074 374.393 3.85388Z" fill="#EDEEF0"/>
<path d="M360.089 13.8075C361.198 14.372 365.031 13.1844 366.698 12.8063C360.481 16.9433 358.121 18.6594 355.127 25.6202C354.395 28.5243 353.326 38.1969 349.564 38.1873C349.294 36.814 352.3 22.7781 352.945 20.7659L353.674 20.9868C354.716 20.3716 355.143 19.0735 355.713 17.9136C356.85 16.1503 358.351 14.9215 360.089 13.8075Z" fill="#1894D0"/>
<path d="M377.367 14.0981C379.16 15.3154 380.831 17.3209 382.316 18.9488C379.786 17.4528 378.289 16.1495 375.977 14.471L377.367 14.0981Z" fill="#8295A9"/>
<path d="M368.86 0C385.247 2.13201 391.211 5.28637 403.546 15.9397C402.338 10.8214 401.253 9.44532 398.267 5.06599C404.053 10.0669 407.918 12.9481 410.943 20.1182C409.509 20.986 409.308 21.3526 407.577 20.8755L407.502 22.1546C407.526 23.942 407.676 25.4127 406.924 27.054C406.258 26.3145 406.266 26.5287 405.058 26.2635C401.847 26.3723 402.821 22.2782 399.804 21.6416C399.435 22.5252 399.42 22.6459 398.837 23.4432C397.725 22.9108 394.367 19.2342 393.258 18.1396C388.054 13.0233 382.15 9.15118 375.192 6.90219C376.515 6.20367 377.596 6.09899 379.065 5.82461C376.967 5.54714 375.988 5.2201 374.393 3.85392L373.62 3.20821C372.072 2.08553 370.484 1.01555 368.86 0Z" fill="#FDFCFB"/>
<path d="M379.065 5.82458C385.564 8.19274 392.014 10.5573 397.352 15.1824C399.336 16.9029 401.641 20.1095 403.7 21.3518C405.15 20.2251 403.973 18.8455 405.411 18.1982C406.635 19.1024 406.809 19.5838 407.577 20.8755L407.502 22.1546C407.526 23.942 407.676 25.4127 406.924 27.054C406.258 26.3145 406.266 26.5287 405.059 26.2634C401.847 26.3723 402.821 22.2781 399.804 21.6416C399.435 22.5252 399.42 22.6459 398.837 23.4432C397.725 22.9107 394.367 19.2342 393.258 18.1396C388.054 13.0233 382.15 9.15116 375.193 6.90217C376.515 6.20364 377.596 6.09897 379.065 5.82458Z" fill="#D78446"/>
<path d="M405.058 26.2635C406.294 24.6451 405.348 24.429 406.29 22.4195L407.502 22.1547C407.526 23.9421 407.676 25.4128 406.924 27.0541C406.258 26.3146 406.266 26.5287 405.058 26.2635Z" fill="#9B5546"/>
<path d="M100.123 76.6842C129.631 66.4824 158.95 55.3634 188.521 45.5665C185.517 47.8812 176.216 55.625 173.024 56.7786C154.474 63.482 134.572 67.613 115.764 73.7515C111.084 75.2789 106.201 76.3798 101.661 77.9831C100.857 77.6933 100.669 77.3378 100.123 76.6842Z" fill="#1894D0"/>
<path d="M135.353 216.824C146.04 212.864 158.185 209.2 169.145 205.484C184.137 200.401 200.546 194.664 215.717 190.406C213.791 192.506 209.386 198.01 207.377 198.802C201.152 201.253 192.298 203.215 185.767 204.906L160.305 211.746C153.09 213.636 144.957 215.556 137.852 217.727C135.794 217.492 135.11 218.415 132.236 218.386C133.716 217.858 134.426 217.877 135.353 216.824Z" fill="#EE7540"/>
<path d="M207.216 214.514C214.283 202.365 226.633 194.896 227.871 180.677C230.753 189.04 231.348 191.486 235.946 199.054L233.913 200.389L229.934 198.045C225.583 201.263 218.133 210.577 215.474 215.343C217.755 218.829 219.822 220.626 222.917 223.336L222.401 224.033C217.226 221.043 212.237 217.756 207.216 214.514Z" fill="#1894D0"/>
<path d="M292.631 312.805L292.821 313.3C294.334 317.124 301.252 327.37 300.721 329.933C295.859 333.415 280.233 316.994 277.766 313.005C273.857 306.685 274.269 298.634 271.184 291.491C278.102 299.038 276.653 307.827 284.41 314.532C285.151 315.172 285.947 316.069 286.889 316.169C287.087 314.955 286.759 314.246 286.406 313.068C285.654 312.337 285.931 312.764 285.618 311.7C286.315 310.652 286.113 310.977 287.511 310.414C289.21 310.436 290.528 310.379 292.227 310.272L292.631 312.805Z" fill="#EE5A2F"/>
<path d="M287.511 310.414C289.21 310.436 290.528 310.379 292.227 310.272L292.631 312.805C290.758 312.872 288.22 312.887 286.406 313.069C285.654 312.337 285.931 312.764 285.618 311.7C286.315 310.652 286.113 310.977 287.511 310.414Z" fill="#FDFCFB"/>
<path d="M260.686 206.284L259.395 205.146L259.486 204.715L260.46 204.552C261.997 204.778 264.595 205.233 266.052 205.259C268.428 205.523 269.949 205.556 272.352 205.553C277.017 205.489 282.735 208.164 286.497 210.771L286.624 211.271C290.382 213.197 302.056 214.936 306.645 213.715L304.388 220.149C300.369 219.403 296.373 218.55 292.402 217.592C287.907 216.506 262.753 209.662 260.686 206.284Z" fill="#DB402F"/>
<path d="M260.686 206.284L259.395 205.146L259.486 204.715L260.46 204.552C261.997 204.778 264.595 205.233 266.052 205.259C268.428 205.523 269.949 205.556 272.352 205.553C277.017 205.489 282.735 208.164 286.497 210.771L286.624 211.271C282.842 210.511 278.526 208.872 274.693 208.161C270.099 207.31 265.363 206.944 260.686 206.284Z" fill="#161629"/>
<path d="M188.464 314.131C199.926 309.748 211.303 305.145 222.589 300.324C227.712 298.151 239.113 292.938 244.169 291.358C245.367 293.457 246.466 295.377 247.789 297.411C237.76 300.499 227.701 303.482 217.611 306.359C211.285 308.13 195.074 312.612 189.47 315.078L188.464 314.131Z" fill="#FDFCFB"/>
<path d="M147.675 47.2843C168.17 40.0064 190.547 32.8351 211.269 26.0505L211.711 27.3327C208.958 29.1055 204.108 32.5191 201.42 33.8204C196.585 36.1604 189.688 37.1434 184.519 38.6284C172.776 42.0028 161.076 44.8456 149.324 48.2411L147.675 47.2843Z" fill="#FDFCFB"/>
<path d="M269.869 264.656L271.869 264.607L272.376 265.157C272.626 267.141 271.307 271.23 270.784 273.545C269.26 280.305 279.231 282.714 281.698 286.243L281.333 286.661C276.324 286.718 270.705 283.396 268.571 278.834C267.165 275.821 267.28 272.748 267.252 269.516C261.561 269.178 264.361 283.436 264.785 286.226C261.451 281.988 260.326 279.289 258.817 274.297C258.603 275.694 258.374 277.089 258.128 278.482L257.582 278.695C256.322 277.532 254.952 273.083 255.554 271.607C258.306 268.934 266.096 265.806 269.869 264.656Z" fill="#1894D0"/>
<path d="M138.312 354.694C140.271 353.902 142.315 353.225 144.332 352.588C157.204 348.518 169.77 343.747 182.461 339.157L182.838 340.419C174.679 343.982 166.583 347.69 158.556 351.542C153.353 354.052 145.441 358.168 140.247 360.245C138.539 359.28 134.629 362.674 131.731 363.466C131.466 362.384 131.971 361.143 132.959 360.616L132.267 361.03L133.08 360.646L132.522 360.637L132.665 360.461L133.249 360.658L133.562 360.364L133.197 360.113L132.601 360.47L132.382 360.35L133.01 360.17L132.04 360.132C131.141 359.453 130.568 359.302 130.406 358.419C132.786 356.505 135.853 357.501 138.312 354.694Z" fill="#EE7540"/>
<path d="M123.881 254.425C134.461 249.745 145.63 245.988 156.548 242.175C165.603 239.013 174.81 237.544 184.314 236.408C174.879 243.149 164.819 243.757 153.857 246.908C144.319 249.65 134.791 252.187 125.378 255.411L123.881 254.425Z" fill="#EAEDEE"/>
<path d="M91.4743 305.187C97.3026 304.369 103.992 304.294 109.815 305.179C107.724 309.334 103.366 315.849 104.712 320.317C105.335 322.38 108.871 327.726 109.255 329.466C105.513 329.909 102.398 322.667 102.214 319.557C102.081 317.298 103.025 310.225 101.903 309.284C97.9738 310.57 94.8118 318.68 93.347 322.402C93.3613 319.164 93.4187 315.896 93.2547 312.665C93.2706 310.898 92.69 310.482 91.1932 309.645C91.3456 308.394 91.3999 306.496 91.4743 305.187Z" fill="#1894D0"/>
<path d="M427.468 83.9363C429.48 85.3239 427.896 90.4224 427.67 92.4426C426.43 103.604 421.841 111.847 414.974 120.499C413.22 122.708 411.351 127.199 410.218 129.802L409.616 129.486C407.894 115.528 417.018 111.9 422.288 100.146C425.159 93.7522 425.456 90.3563 427.468 83.9363Z" fill="#FDFCFB"/>
<path d="M251.38 45.5879C253.297 45.4521 262.817 50.2221 265.24 51.5245C269.632 53.8883 295.193 58.4291 295.538 62.3245C279.88 60.0589 264.432 59.9378 252.089 47.8496C251.135 46.9173 251.305 46.6584 251.38 45.5879Z" fill="#D85D50"/>
<path d="M360.101 51.4908L360.402 51.7834C360.552 52.9564 358.311 59.5842 357.844 60.9714C355.519 67.87 354.07 74.7571 352.498 81.8477C354.521 81.3453 358.034 79.8722 359.182 82.0068C358.802 84.1081 356.973 86.2233 355.606 87.8112C354.49 88.4022 354.438 88.4755 353.246 88.2882C350.957 86.9422 349.512 83.1299 348.684 80.7368C345.572 71.7381 355.23 60.2323 360.101 51.4908Z" fill="#FDFCFB"/>
<path d="M181.009 171.842C191.823 168.364 202.636 164.07 213.56 160.659C218.901 158.992 222.799 157.234 228.485 155.928C227.337 157.95 226.17 160.127 224.826 162.009L196.341 169.945C192.135 171.083 187.199 172.036 183.173 173.363L182.492 172.962L183.483 172.603L183.279 172.136C182.192 172.251 182.024 172.243 181.009 171.842Z" fill="#22A9DC"/>
<path d="M240.826 242.888C241.924 243.435 243.191 245.065 244.068 246.044C243.747 246.402 243.41 246.746 243.06 247.076C234.087 255.456 222.142 259.914 209.872 259.464C208.538 259.309 206.457 258.826 205.078 258.55C213.697 256.598 222.199 254.367 229.807 249.761C233.583 247.476 236.95 245.068 240.826 242.888Z" fill="#DB402F"/>
<path d="M270.123 217.364C271.596 217.675 272.285 217.721 273.58 218.52L273.572 219.212C269.469 225.141 255.313 237.843 249.701 243.016L249.444 243.277L248.949 243.265C248.204 241.313 247.595 239.897 246.7 238.011C255.507 231.228 262.314 225.091 270.123 217.364Z" fill="#DB402F"/>
<path d="M301.45 6.93426C306.954 6.54907 312.439 6.33399 317.947 6.06103C329.487 5.48902 341.359 4.01608 352.902 4.22945C351.441 5.6604 349.702 7.27115 348.372 8.79133L308.93 8.05143C307.43 7.7569 303.759 7.73671 301.719 7.46276L301.45 6.93426Z" fill="#EAEDEE"/>
<path d="M291.241 162.764L295.324 162.983L295.368 163.222C297.609 163.334 298.995 163.461 301.208 163.815L300.234 164.222C299.941 165.432 300.373 165.907 300.856 167.25L295.118 166.839C293.451 166.859 291.008 166.638 289.277 166.531C278.898 166.179 269.485 167.722 259.217 168.604C270.638 164.013 279.096 162.791 291.241 162.764Z" fill="#EE7540"/>
<path d="M295.368 163.222C297.609 163.334 298.995 163.461 301.208 163.815L300.234 164.222C299.941 165.432 300.373 165.907 300.856 167.25L295.118 166.839C293.451 166.859 291.008 166.638 289.277 166.531C289.043 165.195 288.968 165.091 289.463 163.889C290.857 162.71 293.451 163.136 295.368 163.222Z" fill="#F6A560"/>
<path d="M419.485 57.5565C421.56 57.5253 426.878 57.553 428.165 59.2766C426.914 61.376 423.354 61.5747 421.1 62.7719C421.033 63.3182 421.275 65.8823 421.619 66.0945C425.654 68.5711 428.177 70.2785 431.349 73.8315C431.804 75.2282 431.895 75.4618 431.84 76.9194C428.909 80.9625 413.275 67.0307 419.485 57.5565Z" fill="#FDFCFB"/>
<path d="M386.272 145.621L392.062 148.044C383.552 150.735 375.018 153.34 366.457 155.857C363.903 156.619 356.604 158.601 354.51 159.54C353.844 159.415 353.722 159.354 353.084 159.134L353.135 158.273C360.56 155.321 378.935 147.627 386.272 145.621Z" fill="#1894D0"/>
<path d="M266.804 151.363C276.558 151.224 290.33 154.9 297.415 161.674L297.47 162.503C296.508 162.923 296.389 162.9 295.324 162.983L291.241 162.764C289.792 162.402 286.972 162.291 285.448 162.315L285.111 162.323L285.456 161.772L284.988 162.353L286.034 161.213C285.899 160.5 285.792 160.176 285.575 159.497C282.074 157.006 271.16 152.825 266.804 151.363Z" fill="#EE7540"/>
<path d="M285.575 159.497C290.826 161.793 292.081 161.022 297.415 161.674L297.47 162.503C296.508 162.923 296.389 162.9 295.324 162.983L291.241 162.764C289.792 162.402 286.972 162.291 285.448 162.315L285.111 162.323L285.456 161.772L284.989 162.353L286.034 161.213C285.899 160.5 285.792 160.176 285.575 159.497Z" fill="#151216"/>
<path d="M222.657 316.972C232.504 314.44 244.837 308.002 254.33 305.419L257.091 309.586L235.165 315.186C232.346 315.911 225.199 317.709 222.885 318.711L221.286 318.496L221.22 318.099L222.657 316.972Z" fill="#DB402F"/>
<path d="M280.431 84.1168L280.625 84.5483C281.456 86.3911 284.45 91.0546 284.707 91.922C285.484 94.5245 286.442 99.6602 287.052 102.472C288.236 107.76 289.562 113.015 291.031 118.231C286.481 110.318 284.022 104.275 280.363 96.2937L279.86 96.3693C279.48 94.8962 280.387 86.6588 280.431 84.1168Z" fill="#5FB4D4"/>
<path d="M400.287 154.308L406.429 156.625C401.455 157.736 396.77 159.445 391.911 160.959C384.835 163.163 377.715 165.216 370.551 167.114L369.007 166.163C377.79 162.756 391.618 157.057 400.287 154.308Z" fill="#D0E0ED"/>
<path d="M289.21 264.776C292.655 263.065 295.799 261.36 299.165 259.494C297.015 261.715 279.674 275.869 277.627 275.727C276.459 274.042 276.958 270.366 277.322 268.439C277.409 267.995 277.52 267.556 277.659 267.125C279.999 267.715 279.947 267.999 281.706 267.099C283.254 266.067 286.6 264.692 288.414 263.884L289.21 264.776Z" fill="#D1E6F0"/>
<path d="M288.414 263.884L289.21 264.776C286.735 265.808 284.367 266.652 281.706 267.099C283.254 266.067 286.6 264.692 288.414 263.884Z" fill="#294A5E"/>
<path d="M287.365 282.864C303.414 282.93 293.867 288.961 292.303 295.383C291.079 294.809 289.119 294.123 287.8 293.619C287.875 290.003 287.598 286.471 287.365 282.864Z" fill="#DB402F"/>
<path d="M297.684 126.797C301.751 134 304.234 142.664 306.17 150.661C306.653 152.649 306.943 156.392 307.263 157.318L307.996 157.653L308.202 159.655C306.919 159.325 305.315 159.028 303.988 158.748C302.539 153.208 301.929 146.614 300.876 140.912C299.985 136.073 298.86 131.569 297.684 126.797Z" fill="#D85D50"/>
<path d="M35.387 248.59C37.0169 248.667 37.7618 248.775 38.9529 250.043C41.4354 252.686 45.4076 266.161 45.2267 269.378C41.9676 265.344 33.3832 253.806 35.387 248.59Z" fill="#EE7540"/>
<path d="M286.965 296.75C288.545 296.608 290.117 297.563 291.586 298.261C291.503 298.896 291.4 299.481 291.392 300.121L291.526 300.76C291.772 302.615 291.736 304.365 291.744 306.234L292.227 310.272C290.528 310.379 289.21 310.436 287.511 310.414L288.335 309.988C287.737 308.031 283.911 308.028 284.549 305.537L285.792 304.812C287.222 304.341 287.194 303.491 287.412 302.261C285.927 301.923 284.141 301.761 283.476 300.297C284.319 299.204 284.688 299.35 286.157 298.835C286.85 298.001 286.806 297.871 286.965 296.75Z" fill="#F3B9A9"/>
<path d="M286.965 296.75C288.545 296.608 290.117 297.563 291.586 298.261C291.503 298.896 291.4 299.481 291.392 300.121L291.526 300.76L291.285 302.455L290.667 302.843C289.451 302.443 288.644 302.024 287.412 302.261C285.927 301.923 284.141 301.761 283.476 300.297C284.319 299.204 284.688 299.35 286.157 298.835C286.85 298.001 286.806 297.871 286.965 296.75Z" fill="#F3B9A9"/>
<path d="M286.965 296.75C288.545 296.608 290.117 297.563 291.586 298.261C291.503 298.896 291.4 299.481 291.392 300.121C289.57 299.783 287.871 299.548 286.157 298.835C286.85 298.001 286.806 297.871 286.965 296.75Z" fill="#D5896D"/>
<path d="M291.526 300.76C291.772 302.615 291.736 304.366 291.744 306.234C290.786 304.894 287.487 304.975 285.792 304.812C287.222 304.341 287.194 303.491 287.412 302.261C288.644 302.024 289.451 302.443 290.667 302.843L291.285 302.455L291.526 300.76Z" fill="#D85D50"/>
<path d="M285.175 67.978C289.364 68.9954 288.616 69.2844 289.055 73.5821C289.309 76.0559 289.226 78.5187 289.78 80.9538C290.346 83.4605 293.142 86.9216 293.487 89.2047C285.155 84.1418 284.454 76.7135 285.175 67.978Z" fill="#D85D50"/>
<path d="M120.35 330.465C121.06 331.7 122.127 333.446 122.703 334.697C119.192 336.516 116.026 337.847 113.384 340.825L111.955 339.725C112.926 337.503 111.623 334.191 110.947 331.653C113.858 331.315 117.542 330.98 120.35 330.465Z" fill="#DB402F"/>
<path d="M237.957 74.4875C240.435 74.3549 241.285 76.6629 240.4 78.4368C238.402 79.3917 223.12 82.533 220.004 83.2186C219.078 83.4613 218.845 83.5931 217.898 83.3691C219.55 81.9289 235.089 75.7124 237.957 74.4875Z" fill="#1894D0"/>
<path d="M159.167 324.615C160.256 324.695 159.787 324.484 160.571 325.368C160.987 327.226 160.536 329.604 160.291 331.545C155.42 332.686 152.066 334.316 147.846 336.742C147.361 337.031 147.609 336.912 146.962 336.93L147.072 336.133C149.912 332.048 155.083 327.473 159.167 324.615Z" fill="#EE5A2F"/>
<path d="M117.56 266.838C125.856 263.85 134.463 260.615 142.855 258.017C139.325 262.091 137.502 263.594 132.035 264.904C127.514 265.987 122.896 267.062 118.467 268.465L117.56 266.838Z" fill="#F8734F"/>
<path d="M300.484 232.804C299.676 233.866 298.365 235.606 297.181 236.202C290.612 239.51 282.589 240.889 275.631 243.366L274.087 242.6C283.143 238.488 290.727 235.011 300.484 232.804Z" fill="#FDFCFB"/>
<path d="M5.24059 334.628C10.1244 334.613 16.2505 338.586 19.15 342.324C15.7064 342.247 8.563 340.67 4.90796 339.969C4.97132 338.249 5.1309 336.361 5.24059 334.628Z" fill="#D1E6F0"/>
<path d="M265.252 328.371C266.959 328.284 269.034 330.767 270.246 331.952C261.443 332.667 254.996 333.561 246.359 335.068C244.869 335.311 242.974 335.393 241.429 335.501C245.223 334.162 249.222 333.38 253.071 332.23C257.146 331.014 261.181 329.634 265.252 328.371Z" fill="#DB402F"/>
<path d="M301.842 76.0667C303.478 78.1779 307.453 86.8674 306.772 89.3436L306.107 89.5483C304.317 89.814 302.353 89.9224 300.535 90.0606C300.706 85.4205 300.991 80.6351 301.842 76.0667Z" fill="#D85D50"/>
<path d="M34.8378 206.522C36.1679 206.28 37.304 205.859 38.5791 205.449C48.9891 202.102 59.2303 198.205 69.6054 194.774L69.8355 195.745L69.1579 196.341L69.308 196.695C57.5164 201.057 45.6833 203.808 34.614 207.716L34.8378 206.522Z" fill="#5FB4D4"/>
<path d="M352.732 41.4462C353.781 41.287 354.498 41.1006 355.309 41.7082C354.217 43.7933 348.843 47.7046 346.788 49.3341C346.526 49.6151 346.32 49.6421 345.928 49.8218C345.152 48.973 344.499 44.8911 344.158 43.443C347.425 42.4759 349.35 41.9485 352.732 41.4462Z" fill="#FDFCFB"/>
<path d="M328.259 15.9326C332.001 15.7287 340.182 14.7346 342.943 16.9187L342.594 17.9694C339.101 19.5537 332.508 18.6384 328.647 18.0913C327.412 17.6962 325.843 17.5347 325.04 16.828C325.839 16.0889 327.122 16.0874 328.259 15.9326Z" fill="#D5896D"/>
<path d="M313.896 213.831C316.636 214.06 327.281 214.702 329.087 215.699C328.635 216.367 327.582 216.344 326.564 216.54C321.503 217.109 316.878 218.138 311.932 219.225C312.748 217.304 313.255 215.822 313.896 213.831Z" fill="#DB402F"/>
<path d="M7.9104 272.947C14.9944 276.165 16.3903 278.534 20.844 284.781L20.1194 286.19C14.5065 281.732 10.6428 279.623 7.9104 272.947Z" fill="#EE7540"/>
<path d="M181.009 171.842C182.024 172.243 182.192 172.251 183.279 172.136L183.483 172.603L182.492 172.962L183.173 173.363C179.259 175.127 169.608 177.392 164.785 178.963C163.238 178.774 162.134 179.09 160.607 179.38L163.206 177.68C168.59 175.848 175.703 173.196 181.009 171.842Z" fill="#1894D0"/>
<path d="M127.059 155.871L127.608 156.009C125.34 157.878 117.129 161.882 114.256 163.25L113.75 162.991C113.42 161.631 114.005 159.361 114.284 157.87C118.549 157.243 122.807 156.577 127.059 155.871Z" fill="#FDFCFB"/>
<path d="M410.943 20.1182C411.687 24.4713 411.062 30.1181 406.551 32.2943L405.744 32.1391C405.213 30.3501 406.155 28.8272 406.924 27.054C407.676 25.4127 407.526 23.942 407.502 22.1546L407.577 20.8755C409.307 21.3526 409.509 20.986 410.943 20.1182Z" fill="#F6A560"/>
<path d="M222.214 287.715C224.7 286.739 238.114 281.216 239.814 281.315C240.915 282.065 240.593 281.615 240.934 282.98C240.655 283.75 240.717 284.113 239.908 284.391C235.384 285.947 228.114 286.735 223.814 288.503L222.214 287.715Z" fill="#1894D0"/>
<path d="M142.673 271.982C143.284 272.546 144.337 273.585 144.956 274.05C144.073 275.547 143.997 275.746 143.809 277.473C142.839 279.447 139.714 282.549 138.115 284.363C137.902 282.9 137.681 283.034 136.53 282.447C138.446 278.883 140.495 275.392 142.673 271.982Z" fill="#D1E6F0"/>
<path d="M439.851 54.2525C442.033 54.2287 442.662 55.1998 444.337 56.7137C442.306 58.5276 440.516 60.2869 438.587 62.1966L436.378 64.4314L436.338 58.5225C437.708 56.4013 438.025 55.9861 439.851 54.2525Z" fill="#FDFCFB"/>
<path d="M63.3962 290.57C64.5137 291.161 67.6774 294.676 68.7422 295.791C69.1093 298.671 69.5865 301.674 69.5607 304.566C65.2226 302.203 64.2045 294.914 63.3962 290.57Z" fill="#D78446"/>
<path d="M144.132 138.852C150.991 137.04 159.37 133.445 166.782 131.384C166.464 132.433 166.472 132.56 165.783 133.378L165.916 133.673C160.333 136.266 147.76 138.13 144.205 140.025C143.898 139.38 144.015 139.713 144.132 138.852Z" fill="#DB402F"/>
<path d="M369.13 29.3319C372.658 29.6835 375.838 31.5801 373.803 35.5033C372.199 35.4083 373.169 32.799 371.134 31.2622C367.36 31.0655 366.718 34.3643 366.496 37.2649C366.663 39.3481 367.554 40.7079 368.354 42.6948L368.092 43.2498C365.617 42.2332 364.227 38.4431 364.675 35.9225C365.261 32.6074 366.536 31.2745 369.13 29.3319Z" fill="#EAEDEE"/>
<path d="M432.636 51.8919C434.235 51.8599 436.528 51.7051 437.11 53.3769C436.635 55.0641 434.762 56.4505 433.527 58.9845L433.321 59.4121C432.754 60.395 432.96 60.433 432.164 60.6824C430.311 57.7537 429.693 54.2233 432.636 51.8919Z" fill="#FDFCFB"/>
<path d="M164.785 178.963C163.797 179.423 142.429 185.516 142.316 185.511C144.878 182.509 159.193 178.491 163.206 177.68L160.607 179.38C162.134 179.09 163.238 178.774 164.785 178.963Z" fill="#22608F"/>
<path d="M258.948 318.129C259.768 318.43 260.104 318.459 260.599 319.177L260.425 319.789C258.239 321.53 247.789 322.841 244.784 323.247L243.549 322.986C244.694 321.59 256.524 318.623 258.948 318.129Z" fill="#DB402F"/>
<path d="M65.3865 149.915C69.4415 148.272 83.7738 143.355 88.0355 142.308L88.6144 143.229L89.4745 143.326C85.4176 145.208 68.5291 149.415 66.8089 150.691L65.3865 149.915Z" fill="#8295A9"/>
<path d="M115.299 223.204C118.915 221.8 131.905 217.367 135.353 216.823C134.426 217.877 133.716 217.858 132.236 218.386C135.11 218.415 135.794 217.492 137.852 217.727C134.116 219.361 123.207 222.16 118.911 223.322C117.195 223.101 117.059 224 115.299 223.204Z" fill="#892B25"/>
<path d="M37.3346 291.661C40.1058 292.3 43.9877 299.442 43.408 301.442C40.2147 299.523 33.8957 296.127 37.3346 291.661Z" fill="#FDFCFB"/>
<path d="M97.6526 336.607L97.8661 336.854C98.5436 340.407 94.2641 349.942 92.45 353.37L92.0651 352.906C91.42 348.325 95.3994 340.619 97.6526 336.607Z" fill="#1894D0"/>
<path d="M367.284 50.1461C368.734 51.1904 368.421 55.2644 369.142 57.7196C370.46 62.1883 377.992 68.0129 379.35 71.0247C376.452 69.5426 372.028 64.8154 370.155 62.1353C367.071 57.7256 366.485 55.2224 367.284 50.1461Z" fill="#7F7474"/>
<path d="M99.5997 360.373C104.438 360.538 109.841 366.87 109.576 371.696C108.575 370.893 99.9336 361.64 99.5997 360.373Z" fill="#D85D50"/>
<path d="M168.047 361.205C172.889 360.029 185.717 357.992 190.65 358.651C187.698 359.465 171.22 362.667 168.095 362.86C169.33 362.346 170.994 361.789 172.282 361.32C170.811 361.325 169.511 361.276 168.047 361.205Z" fill="#976848"/>
<path d="M104.103 208.295C100.769 209.563 82.9798 214.514 80.1849 214.548C87.3065 211.78 96.53 209.014 103.938 206.776C103.764 207.877 103.662 207.393 104.103 208.295Z" fill="#8295A9"/>
<path d="M80.7052 83.6469C83.4491 82.2768 97.3362 77.0207 100.123 76.6842C100.669 77.3378 100.857 77.6933 101.661 77.9831C93.8467 80.4391 88.7285 82.2277 80.7052 83.6469Z" fill="#22608F"/>
<path d="M124.324 90.9438C127.547 89.6584 134.632 86.5147 137.702 86.6038L138.413 86.9854L138.437 87.9331C136.431 89.6722 129.468 90.8183 126.592 91.8911C125.507 91.6948 125.301 91.5056 124.324 90.9438Z" fill="#DB402F"/>
<path d="M108.422 344.335C109.208 343.746 109.154 343.666 109.476 342.76C108.979 340.916 106.98 340.259 105.644 338.077L106.107 337.631C107.793 337.337 110.268 338.886 111.955 339.725L113.384 340.825L109.777 346.006L108.422 344.335Z" fill="#D85D50"/>
<path d="M364.976 68.5691C365.732 68.5212 366.069 68.5699 366.809 68.6261L367.106 69.1839C365.867 71.1807 359.052 74.2104 356.537 75.4637L355.539 75.8224L355.377 75.3153C357.349 72.385 361.816 69.9622 364.976 68.5691Z" fill="#D85D50"/>
<path d="M286.965 296.75C286.497 296.497 286.03 296.238 285.571 295.974C283.955 295.042 283.749 294.828 283.325 293.266L283.832 292.668C285.341 292.309 286.319 292.969 287.8 293.619C289.119 294.123 291.079 294.809 292.303 295.383L291.586 298.261C290.117 297.563 288.545 296.608 286.965 296.75Z" fill="#F3B9A9"/>
<path d="M171.175 147.789C167.322 149.457 155.81 152.927 151.787 152.663L151.9 152.354C157.826 150.792 164.515 147.587 169.398 146.501L167.514 147.68L167.458 148.125C168.813 148.07 169.847 147.954 171.175 147.789Z" fill="#294A5E"/>
<path d="M379.283 116.565C381.469 118.049 394.466 128.234 395.226 129.916C391.21 129.058 381.338 120.244 379.283 116.565Z" fill="#A09EA7"/>
<path d="M431.772 89.4283L432.291 89.9442C432.691 92.5554 429.476 99.9152 428.197 102.41C426.157 100.392 429.864 91.7624 431.772 89.4283Z" fill="#22608F"/>
<path d="M426.826 49.2094C428.232 49.3246 429.301 49.441 430.204 50.5301C430.03 52.0071 427.999 53.7371 426.87 54.9069C426.224 55.3012 425.71 54.9386 425.179 54.667C423.702 51.8036 424.53 50.9723 426.826 49.2094Z" fill="#FDFCFB"/>
<path d="M206.52 323.24C211.99 320.131 216.755 318.998 222.657 316.972L221.22 318.099L221.286 318.496L222.885 318.711C220.289 319.781 209.258 322.918 206.52 323.24Z" fill="#512F35"/>
<path d="M193.184 346.607C194.704 346.455 195.624 346.135 196.506 347.452C195.917 349.241 194.632 349.706 193.033 350.441L192.776 350.471C191.145 350.654 190.521 350.841 189.395 349.942L189.578 349.022C190.62 347.711 191.695 347.325 193.184 346.607Z" fill="#FDFCFB"/>
<path d="M294.69 280.6C298.936 276.06 302.583 272.888 307.754 269.504L308.154 271.28C307.022 272.409 296.259 279.734 294.69 280.6Z" fill="#DB402F"/>
<path d="M134.287 51.4243C138.44 49.9727 143.406 48.1607 147.675 47.2842L149.324 48.2411C145.068 49.4727 139.909 50.8187 135.779 52.2276L134.287 51.4243Z" fill="#A9C4D7"/>
<path d="M360.362 139.469C361.352 139.858 361.74 140.304 362.093 141.222C360.893 142.758 354.114 143.316 351.706 143.674L350.522 143.725C351.318 142.931 358.794 140.106 360.362 139.469Z" fill="#1894D0"/>
<path d="M19.8857 211.759C23.6426 210.279 31.1938 207.147 34.8378 206.522L34.614 207.716C32.0159 209.415 23.0426 211.623 19.8857 211.759Z" fill="#294A5E"/>
<path d="M282.545 126.424C284.129 130.337 285.658 134.27 287.139 138.221C285.167 135.737 281.646 130.931 280.839 127.988C282.213 127.467 281.741 127.85 282.545 126.424Z" fill="#5FB4D4"/>
<path d="M311.801 16.705C316.26 15.8982 323.709 15.6883 328.259 15.9326C327.123 16.0874 325.839 16.089 325.04 16.8281C325.843 17.5347 327.412 17.6962 328.647 18.0913C325.903 18.1329 314.637 17.051 311.801 16.705Z" fill="#7F7474"/>
<path d="M107.747 347.92C106.424 346.071 105.209 346.465 103.678 343.633L104.074 343.151C106.032 343.298 106.612 343.609 108.422 344.335L109.777 346.006L108.063 348.851L107.747 347.92Z" fill="#EE7540"/>
<path d="M354.51 159.54C351.401 160.862 348.269 161.811 344.911 162.198L344.705 161.885C346.625 160.774 350.95 158.533 353.135 158.273L353.084 159.134C353.722 159.354 353.844 159.415 354.51 159.54Z" fill="#294A5E"/>
<path d="M107.747 347.92L108.063 348.851C107.495 349.922 106.352 352.2 105.681 353.086L104.984 353.098C103.445 351.612 102.466 349.987 101.29 348.214C103.972 348.755 105.846 349.985 107.747 347.92Z" fill="#D85D50"/>
<path d="M111.034 259.928C114.189 258.051 120.368 255.506 123.881 254.425L125.378 255.411C120.191 257.269 116.411 258.677 111.034 259.928Z" fill="#5FB4D4"/>
<path d="M308.93 8.05144C306.582 8.29332 292.627 8.71216 291.142 7.52452C292.881 6.92675 299.458 6.79096 301.45 6.93426L301.719 7.46276C303.759 7.73671 307.43 7.7569 308.93 8.05144Z" fill="#8295A9"/>
<path d="M134.658 351.006C132.321 353.04 126.937 356.358 125.476 357.924L123.73 355.698C127.274 354.164 131.095 352.42 134.658 351.006Z" fill="#BB6465"/>
<path d="M370.551 167.114C367.498 168.155 363.4 169.717 360.263 169.901L360.414 169.475C363.574 167.661 365.475 167.124 369.007 166.163L370.551 167.114Z" fill="#8295A9"/>
<path d="M426.759 133.305C427.709 134.445 427.507 133.907 427.587 135.318C427.266 135.897 427.06 136.399 426.605 136.855L426.379 136.672C426.022 136.881 421.999 140.812 420.502 141.96C422.257 138.442 424.807 136.633 426.339 133.617L426.759 133.305Z" fill="#9B5546"/>
<path d="M104.984 353.098L105.681 353.086C105.056 354.18 104.191 356.703 103.709 357.993C102.064 356.736 100.503 355.099 99.0232 353.628C101.774 354.016 102.915 354.569 104.984 353.098Z" fill="#D85D50"/>
<path d="M0 303.016C2.8286 302.697 6.38068 304.988 6.98775 307.885C5.16656 307.275 0.591618 304.873 0 303.016Z" fill="#DB402F"/>
<path d="M66.809 150.691C63.2493 151.694 59.0747 153.014 55.4811 153.477L55.6197 153.184C58.3932 151.999 62.4142 150.515 65.3865 149.915L66.809 150.691Z" fill="#294A5E"/>
<path d="M104.202 271.876C106.986 270.7 109.46 269.607 112.362 268.728L113.395 270.002C112.515 270.295 107.931 271.757 107.389 272.054C106.044 272.224 105.418 272.444 104.202 271.876Z" fill="#892B25"/>
<path d="M162.809 88.2107C165.465 89.4902 163.793 93.3266 163.213 95.6718C162.786 95.6481 162.832 95.5432 162.36 95.1896C161.555 92.8175 162.186 90.5654 162.809 88.2107Z" fill="#BB6465"/>
<path d="M337.593 25.5228C339.117 25.5667 339.303 25.3427 340.527 26.0604L340.673 26.7967C338.959 28.4064 335.826 27.6233 333.759 27.0192C334.718 25.8819 336.044 25.8415 337.593 25.5228Z" fill="#BDB8C4"/>
<path d="M183.332 298.125L183.775 298.343L183.925 298.932C182.613 301.003 180.48 302.22 178.38 303.372L178.038 303.317L177.725 302.829C178.827 300.672 181.304 299.334 183.332 298.125Z" fill="#D85D50"/>
<path d="M179.362 318.455C180.811 316.615 186.238 314.851 188.464 314.131L189.47 315.078C185.872 316.428 183.049 317.383 179.362 318.455Z" fill="#8295A9"/>
<path d="M134.4 335.292L133.908 336.769C133.281 337.546 130.244 341.443 129.773 341.883L128.569 340.89C129.288 339.801 133.189 336.367 134.4 335.292Z" fill="#892B25"/>
<path d="M112.362 268.728C114.087 268.049 115.812 267.452 117.56 266.839L118.467 268.465C116.897 268.933 114.903 269.466 113.395 270.002L112.362 268.728Z" fill="#DB402F"/>
<path d="M135.309 142.088C137.708 140.974 141.569 139.236 144.132 138.852C144.015 139.713 143.898 139.38 144.205 140.025C142.962 140.973 137.118 141.781 135.309 142.088Z" fill="#512F35"/>
<path d="M32.3755 356.528C35.1483 356.745 38.4441 357.57 41.2066 358.171L40.7334 359.838C37.5718 358.836 35.4013 357.869 32.3755 356.528Z" fill="#DB402F"/>
<path d="M23.4319 303.588C26.3848 305.685 28.3058 307.317 30.8172 309.89L30.0502 311.011C27.614 308.875 25.4681 306.112 23.4319 303.588Z" fill="#892B25"/>
<path d="M108.487 225.917C110.664 224.585 112.78 223.642 115.299 223.204C117.059 224 117.195 223.101 118.911 223.322C116.153 224.595 111.559 225.318 108.487 225.917Z" fill="#512F35"/>
<path d="M287.646 181.718L293.807 181.281L293.38 183.565C291.289 183.096 289.974 182.735 287.84 182.702L287.646 181.718Z" fill="#D5896D"/>
<path d="M126.662 54.338C129.431 52.8934 131.234 52.0494 134.287 51.4243L135.779 52.2276C134.885 52.585 127.941 54.0545 126.662 54.338Z" fill="#5C6A73"/>
<path d="M182.461 339.157C184.142 338.554 186.762 337.453 188.428 337.429C187.629 338.611 184.255 339.838 182.838 340.419L182.461 339.157Z" fill="#976848"/>
<path d="M211.269 26.0505C212.96 24.9674 216.297 23.8767 218.292 23.1649C215.777 24.9654 214.478 25.8442 211.711 27.3327L211.269 26.0505Z" fill="#A9C4D7"/>
<path d="M117.984 93.3468C120.418 92.257 121.777 91.7055 124.324 90.9438C125.301 91.5056 125.507 91.6948 126.592 91.8912C123.993 92.481 120.666 92.9197 117.984 93.3468Z" fill="#892B25"/>
<path d="M328.35 25.6633L337.593 25.5228C336.044 25.8414 334.718 25.8818 333.759 27.0192C331.898 26.7868 330.148 26.1973 328.35 25.6633Z" fill="#A09EA7"/>
<path d="M107.389 272.054C104.863 272.951 103.105 273.807 100.42 273.541C101.59 272.43 102.609 272.305 104.202 271.876C105.418 272.444 106.044 272.225 107.389 272.054Z" fill="#512F35"/>
<path d="M119.174 328.471C120.759 325.933 121.783 324.678 123.664 322.416L125.037 323.172C122.937 325.229 121.463 326.59 119.174 328.471Z" fill="#DB402F"/>
<path d="M235.946 199.054C236.798 200.333 237.677 201.701 238.559 202.948C237.181 202.249 235.095 201.274 233.913 200.389L235.946 199.054Z" fill="#1894D0"/>
<path d="M268.471 245.104C270.543 244.061 271.925 243.425 274.087 242.6L275.631 243.366C273.271 244.229 270.974 244.9 268.471 245.104Z" fill="#BDB8C4"/>
<path d="M128.569 340.89L129.773 341.883L128.069 344.1L126.91 342.581L128.569 340.89Z" fill="#DB402F"/>
<path d="M20.8441 284.781C21.9406 286.314 22.9935 287.77 24.0009 289.364C22.8027 288.398 21.2274 287.201 20.1194 286.19L20.8441 284.781Z" fill="#DB402F"/>
<path d="M218.231 289.992C219.926 288.722 220.255 288.486 222.214 287.715L223.814 288.503C222.24 289.071 219.914 289.576 218.231 289.992Z" fill="#22608F"/>
<path d="M222.917 223.336C224.807 224.827 225.766 225.56 226.905 227.788C226.121 227.16 222.85 224.618 222.401 224.033L222.917 223.336Z" fill="#163C60"/>
<path d="M53.8721 305.659L57.1014 310.082L56.0481 310.848C55.2018 309.5 54.4502 307.218 53.8721 305.659Z" fill="#9B5546"/>
<path d="M134.4 335.292L135.453 334.17L135.935 334.22C135.428 335.779 135.29 335.533 133.908 336.769L134.4 335.292Z" fill="#252933"/>
<path d="M287.84 182.702C286.671 182.708 286.707 182.739 285.63 182.334C286.212 181.67 286.477 181.867 287.646 181.718L287.84 182.702Z" fill="#715E6D"/>
</svg>
