<svg width="1056" height="228" viewBox="0 0 1056 228" fill="none" xmlns="http://www.w3.org/2000/svg">
<path d="M110.716 35.9468L110.722 35.3867C120.575 27.2713 129.934 18.4781 141.606 12.9904C142.939 12.432 145.388 10.7453 146.818 10.9454C149.929 11.3801 153.094 11.9817 156.185 12.3858C162.09 13.1586 168.411 12.8536 173.965 15.2297C175.491 15.882 176.174 15.4601 177.275 16.9337C177.919 17.0408 179.786 16.7441 180.435 16.6319C185.127 15.82 186.381 16.1235 190.801 17.6233C191.368 18.5115 190.465 18.1713 191.147 18.52L191.493 17.9195C196.238 17.6206 197.891 18.1052 201.903 20.5397C202.631 20.9813 202.65 20.7742 203.128 21.6108L202.679 22.6985C203.571 24.3977 205.818 24.3475 206.159 25.9926C207.582 32.8684 207.433 39.8783 208.385 46.8493C208.613 48.5384 211.413 55.1572 211.418 55.0512C212.35 56.2946 213.369 56.7038 214.773 57.2867L215.09 57.2235C221.949 55.8234 219.712 48.0218 221.719 47.104C223.586 50.0351 222.159 59.8187 220.712 62.8605C219.061 68.8093 215.114 73.8594 209.74 76.9014C209.144 77.2424 208.543 77.5761 207.94 77.9026C205.577 79.7013 204.188 82.3969 202.128 84.2934C197.137 88.8869 193.409 92.2338 189.479 97.8699L187.057 96.8989L186.932 95.6841C186.838 93.3758 187.439 90.0269 187.36 87.2864C187.203 82.0108 186.122 77.1926 185.108 72.046C186.461 74.7354 188.489 79.0079 189.112 81.8981L189.941 81.358C189.359 74.6626 188.602 71.1253 187.105 64.6421C192.373 72.5487 194.486 80.7986 193.452 90.2528C198.355 81.9858 197.759 72.4807 194.822 63.668C193.854 63.1899 191.4 55.9263 191.849 55.518C197.052 50.784 201.22 44.6617 202.299 37.5657C202.619 35.4557 203.378 26.4993 201.189 26.1161C200.499 26.5589 200.424 26.6899 199.944 27.3634C200.528 28.7473 200.441 29.7836 199.547 30.9456L199.398 31.1373C199.1 32.2788 199.85 31.7819 199.316 32.4927C200.968 40.1448 196.014 47.5009 190.508 52.3333L189.491 48.1984C188.953 45.5783 187.475 41.8781 186.333 39.4684C188.153 39.9985 189.337 40.1268 191.217 40.1559C192.957 40.0052 193.959 39.7882 195.642 39.4197C188.09 36.5729 183.375 31.6181 176.77 27.4095C174.268 25.8163 171.028 24.7117 168.219 23.8383C169.865 26.0174 172.175 28.3667 174.076 30.3886C168.622 28.972 161.131 27.063 156.341 24.1291C157.906 23.5916 160.85 23.0591 162.566 22.7158C160.833 22.1264 155.473 20.8097 153.856 21.087C150.82 21.6077 146.605 24.3869 143.624 25.6139C139.98 27.1144 136.237 28.4047 132.705 30.04L132.403 30.4648L131.923 30.4919L131.755 30.1407C132.615 28.2372 140.439 20.7055 142.408 18.9719C143.219 18.2585 146.168 17.4392 146.224 16.3366C144.868 16.0226 143.192 17.1756 142.028 17.9008C140.336 18.9373 138.743 20.1259 137.267 21.4517C134.696 23.7701 125.182 34.0338 122.591 34.1335C121.181 35.0378 118.215 36.8396 117.182 37.9629C117.556 38.0379 117.93 38.116 118.302 38.1972C115.64 40.7585 112.56 43.6263 112.38 47.6734C112.103 48.8611 111.774 50.5002 111.343 51.6019C110.052 52.4654 109.22 52.9705 107.844 53.6867L108.973 53.9044C108.88 53.9921 106.381 56.185 106.477 56.1329C105.531 57.5712 103.175 62.5844 101.296 61.2776C100.592 59.8612 101.127 58.9472 101.778 57.5808C101.955 56.7576 102.149 55.9383 102.359 55.1233C102.972 53.4534 103.226 52.8273 104.129 51.3071C103.433 51.8361 102.418 52.7465 101.632 52.8645C100.925 53.3304 99.5699 53.5968 98.7527 53.3453C97.0285 52.0714 98.1514 51.3282 97.6186 50.1365L98.007 49.8181C98.223 48.9236 98.3562 47.2931 98.4631 46.3198C97.7741 46.7984 96.7731 47.4916 95.9492 47.5127L95.803 47.1537C97.6505 41.2861 105.807 40.0855 110.716 35.9468Z" fill="#ECF0F2"/>
<path d="M202.984 27.6428C206.777 31.8836 205.246 39.3351 205.827 44.6497C206.262 48.6288 207.161 53.0981 210.154 56.0003C211.096 56.9193 213.65 58.6404 214.773 57.2867L215.09 57.2235C221.95 55.8235 219.712 48.0219 221.719 47.104C223.586 50.0351 222.159 59.8187 220.712 62.8605C219.061 68.8094 215.114 73.8594 209.74 76.9014C209.144 77.2424 208.543 77.5761 207.94 77.9026C205.577 79.7013 204.188 82.3969 202.129 84.2934C197.137 88.8869 193.409 92.2338 189.479 97.8699L187.057 96.8989L186.932 95.6841C186.838 93.3758 187.439 90.027 187.36 87.2864C187.203 82.0108 186.122 77.1926 185.108 72.0461C186.461 74.7354 188.489 79.0079 189.112 81.8981L189.941 81.358C189.359 74.6626 188.602 71.1253 187.105 64.6421C192.373 72.5487 194.486 80.7986 193.452 90.2528C198.355 81.9858 197.759 72.4807 194.822 63.6681C193.945 60.9768 193.003 58.3071 191.998 55.6615C197.444 52.0241 200.785 45.6763 202.357 39.4476C203.33 35.5814 203.167 31.5912 202.984 27.6428Z" fill="#EE7540"/>
<path d="M207.94 77.9026C207.716 77.5349 207.659 77.3557 207.495 76.9648C208.212 75.3913 212.059 72.4681 213.509 70.9775C215.624 68.8025 217.412 65.1922 219.486 63.3097C220.159 63.2045 220.065 63.0048 220.712 62.8604C219.061 68.8093 215.114 73.8593 209.74 76.9014C209.144 77.2423 208.543 77.576 207.94 77.9026Z" fill="#F6A560"/>
<path d="M189.941 81.3579C190.676 83.098 190.01 88.5079 189.934 90.4553L189.782 88.9851C189.246 89.5915 189.494 90.1002 188.967 90.4956C188.874 89.8863 189.02 88.9817 189.285 88.4716C190.085 86.9195 189.061 82.6234 189.112 81.898L189.941 81.3579Z" fill="#DB402F"/>
<path d="M197.872 62.242C200.393 64.2161 204.868 73.7363 205.962 76.9158L204.623 78.8185C204.152 79.3493 204.147 79.3524 203.556 79.7431C203.261 79.4105 202.96 77.2527 202.886 76.6292C202.253 71.3338 200.177 67.0034 197.872 62.242Z" fill="#151216"/>
<path d="M110.717 35.9468L110.722 35.3867C120.575 27.2713 129.934 18.4781 141.606 12.9904C142.939 12.432 145.388 10.7453 146.818 10.9454C149.929 11.3801 153.094 11.9817 156.185 12.3858C162.09 13.1586 168.411 12.8536 173.965 15.2297C175.491 15.882 176.174 15.4601 177.275 16.9337C177.919 17.0408 179.786 16.7441 180.435 16.6319C185.127 15.82 186.381 16.1235 190.801 17.6233C191.368 18.5115 190.465 18.1713 191.147 18.52L191.493 17.9195C196.238 17.6206 197.891 18.1052 201.903 20.5397C202.631 20.9813 202.65 20.7742 203.128 21.6108L202.679 22.6985C203.571 24.3977 205.818 24.3475 206.159 25.9926C207.582 32.8684 207.433 39.8783 208.385 46.8493C208.613 48.5384 211.413 55.1571 211.418 55.0512C212.35 56.2946 213.369 56.7038 214.773 57.2867C213.65 58.6404 211.096 56.9193 210.154 56.0003C207.161 53.098 206.262 48.6288 205.827 44.6496C205.246 39.3351 206.777 31.8836 202.984 27.6428C203.167 31.5912 203.33 35.5813 202.357 39.4475C200.785 45.6763 197.444 52.024 191.998 55.6615C193.003 58.3071 193.945 60.9767 194.822 63.668C193.854 63.1899 191.4 55.9263 191.849 55.518C197.052 50.784 201.22 44.6616 202.299 37.5657C202.619 35.4557 203.378 26.4993 201.189 26.1161C200.499 26.5589 200.425 26.6899 199.944 27.3634C200.528 28.7473 200.441 29.7836 199.547 30.9456L199.398 31.1373L199.61 29.427C199.631 22.4839 191.76 17.8604 185.47 18.0848C179.606 18.2941 175.338 20.4589 169.853 21.8114C172.281 19.7083 174.307 18.6192 177.104 17.0315C168.594 13.5536 165.488 13.7196 156.363 12.8914C153.255 12.6091 149.234 11.6278 146.016 11.4039C138.511 15.1156 133.586 17.5079 126.873 22.7124C123.799 25.1111 120.794 27.5971 117.862 30.1678C116.752 31.1248 111.861 35.411 110.717 35.9468Z" fill="#163C60"/>
<path d="M200.91 23.131C202.246 23.7636 204.027 24.5452 205.284 25.2494C207.765 33.1262 206.241 50.8239 211.418 55.0512C212.35 56.2946 213.369 56.7038 214.773 57.2867C213.65 58.6404 211.096 56.9193 210.154 56.0003C207.161 53.098 206.262 48.6288 205.827 44.6496C205.246 39.3351 206.777 31.8836 202.984 27.6428C202.29 25.9873 201.725 24.737 200.91 23.131Z" fill="#FDFCFB"/>
<path d="M122.591 34.1334C125.525 31.8316 128.344 29.3871 131.038 26.8088C137.318 20.6973 142.085 14.2842 151.842 15.7753C151.517 16.3238 151.613 16.1513 150.854 16.4324C143.107 16.9601 138.325 23.7153 133.301 28.9292C132.928 29.3167 132.764 29.5056 132.705 30.0399L132.403 30.4647L131.923 30.4919L131.755 30.1406C132.615 28.2372 140.439 20.7054 142.408 18.9719C143.219 18.2585 146.168 17.4392 146.224 16.3366C144.868 16.0225 143.192 17.1756 142.028 17.9007C140.336 18.9373 138.743 20.1259 137.267 21.4517C134.696 23.7701 125.182 34.0337 122.591 34.1334Z" fill="#163C60"/>
<path d="M189.491 48.1987C188.953 45.5785 187.475 41.8784 186.333 39.4687C188.153 39.9987 189.337 40.127 191.217 40.1561C190.135 42.3618 190.611 45.3275 189.491 48.1987Z" fill="#D1E6F0"/>
<path d="M101.778 57.581C103.084 57.0548 105.111 56.2446 106.477 56.1331C105.531 57.5714 103.175 62.5846 101.296 61.2778C100.592 59.8614 101.127 58.9474 101.778 57.581Z" fill="#D85D50"/>
<path d="M102.359 55.1235C103.894 55.7532 106.534 54.3553 107.844 53.6869L108.973 53.9046C108.88 53.9923 106.381 56.1852 106.477 56.1331C105.111 56.2446 103.084 57.0548 101.778 57.581C101.955 56.7578 102.149 55.9385 102.359 55.1235Z" fill="#161629"/>
<path d="M101.632 52.8645C100.925 53.3303 99.5699 53.5968 98.7528 53.3452C97.0286 52.0713 98.1514 51.3282 97.6186 50.1364L98.007 49.8181C98.8782 49.7868 99.799 49.6086 100.433 50.0492C100.377 51.1042 99.4639 51.2662 99.5308 52.4245L99.8523 52.7174C100.645 52.6033 100.939 52.4584 101.632 52.8645Z" fill="#161629"/>
<path d="M194.728 25.5876C196.769 26.8358 197.858 27.844 199.61 29.4271L199.398 31.1374C199.1 32.2789 199.85 31.782 199.317 32.4927C199.136 32.27 198.288 30.573 198.016 30.0963C196.98 28.2719 196.113 27.1465 194.728 25.5876Z" fill="#142532"/>
<path d="M151.842 15.7753C152.416 15.8664 153.084 15.8988 153.515 16.247C152.445 16.5372 151.957 16.4702 150.854 16.4325C151.613 16.1514 151.517 16.3239 151.842 15.7753Z" fill="#8295A9"/>
<path d="M207.851 108.408C215.595 112.762 231.121 122.489 233.217 131.333L227.422 127.381C229.6 130.803 229.749 135.669 226.454 138.478C225.994 138.876 225.021 139.668 224.687 140.109L223.99 140.159C223.754 139.987 221.767 134.716 221.241 133.665C221.183 135.167 221.178 135.622 220.762 137.047C214.499 143.486 207.029 147.238 199.04 151.011C196.565 152.181 194.031 153.7 191.558 154.835C192.928 153.171 198.418 149.96 200.461 148.445C204.679 145.319 208.536 141.105 212.521 137.975C203.51 141.675 193.483 144.595 185.934 150.654C189.669 149.293 191.686 148.688 195.514 147.799C191.981 149.682 188.487 151.558 185.096 153.7C181.784 155.792 178.508 158.345 175.047 160.159C173.946 160.649 171.915 161.484 170.975 162.11C169.908 162.656 169.94 162.484 168.519 162.126C168.55 160.477 172.689 157.793 174.066 157.002C182.231 152.315 186.422 144.197 192.962 138.145C198.331 133.178 209.615 132.702 216.926 133.498C210.781 129.332 204.929 128.014 198.024 125.763C202.001 125.747 216.381 128.501 220.33 129.845C212.216 124.926 205.082 122.82 196.466 119.383C197.591 117.875 198.564 116.734 199.795 115.322C202.254 112.768 204.712 110.135 207.851 108.408Z" fill="#EAEDEE"/>
<path d="M207.851 108.408C215.595 112.762 231.121 122.489 233.217 131.333L227.422 127.381C229.6 130.803 229.749 135.669 226.454 138.478C225.437 136.977 227.131 133.403 223.69 129.4C221.733 127.157 219.426 125.246 216.859 123.74C214.283 122.227 200.451 116.459 199.795 115.322C202.253 112.768 204.712 110.135 207.851 108.408Z" fill="#FDFCFB"/>
<path d="M42.2456 118.214C45.2232 116.941 49.3825 115.681 52.5247 114.626C57.3359 113.002 62.1314 111.332 66.9104 109.615C84.6428 103.239 102.427 97.0082 120.262 90.9241C130.336 87.5425 145.244 83.24 154.103 78.3798C162.414 73.8206 166.303 62.0601 167.74 53.4536C168.062 51.5238 168.969 49.5985 169.384 47.5908C169.605 48.913 169.831 49.7582 170.202 51.0528C170.175 52.5956 169.625 57.5952 169.855 58.4892C169.86 63.1742 169.959 72.4242 171.485 76.7306C170.997 77.5955 171.283 77.3634 170.449 77.6794C169.358 74.644 167.858 71.9641 166.705 68.5669L166.443 68.5791L166.185 69.1836C166.842 72.3538 166.693 75.0129 167.178 77.8584C167.776 79.0196 168.5 80.1753 168.329 81.4831C166.93 83.0232 163.282 80.8024 161.338 81.8964L161.177 82.3147C161.852 83.3688 173.271 86.0089 174.114 89.9385L173.778 90.2869C172.362 90.037 170.935 89.0303 169.569 88.5197C166.337 87.3099 163.109 86.5785 159.643 86.487C157.562 86.432 155.495 86.7681 153.464 86.2878C149.191 86.8702 144.85 88.2208 140.703 89.4322C134.351 91.3244 128.017 93.2768 121.703 95.2895C101.612 101.641 81.4503 107.766 61.2217 113.664C55.8515 115.192 47.1425 118.328 42.0651 119.38L41.974 119.165L42.3852 118.803L42.2456 118.214Z" fill="#EBF2F5"/>
<path d="M155.363 81.5234C155.877 81.212 156.38 80.8799 156.87 80.5282C159.747 78.4255 165.678 72.5562 166.185 69.1838C166.842 72.3539 166.693 75.013 167.178 77.8585C167.382 79.3347 167.62 80.2658 168.002 81.7161C161.448 80.3006 160.874 81.4472 155.363 81.5234Z" fill="#1894D0"/>
<path d="M167.178 77.8583C167.776 79.0195 168.5 80.1752 168.329 81.483C166.93 83.0231 163.282 80.8023 161.338 81.8963L161.177 82.3146C161.852 83.3686 173.271 86.0087 174.114 89.9384L173.778 90.2868C172.362 90.0369 170.935 89.0301 169.569 88.5196C166.337 87.3098 163.109 86.5784 159.643 86.4869C157.562 86.4319 155.495 86.768 153.464 86.2877C161.184 85.0993 166.25 86.8555 173.225 89.3648C169.937 86.1356 165.077 84.3103 160.682 82.9837C159.417 82.6022 155.723 82.7668 154.947 82.1502L155.363 81.5231C160.874 81.447 161.448 80.3004 168.002 81.7158C167.62 80.2655 167.382 79.3345 167.178 77.8583Z" fill="#163C60"/>
<path d="M86.5924 165.073C91.935 156.752 98.4259 153.872 107.569 151.253C118.197 148.208 118.599 141.407 124.41 133.436L129.413 136.912C131.712 138.423 133.965 139.74 136.228 141.194C132.302 143.623 129.147 145.778 125.653 148.835C122.775 151.353 119.008 155.497 115.681 157.416C114.15 158.291 112.409 159.357 110.794 160.007C111.895 157.664 113.31 154.835 114.141 152.438C112.025 154.15 110.112 155.697 108.16 157.597C103.348 162.876 97.5755 168.472 89.8885 168.689C88.9081 168.716 88.2106 168.779 87.2819 168.406C87.3959 167.358 87.4423 167.238 87.9782 166.329C87.6023 166.046 86.963 165.416 86.5924 165.073Z" fill="#FDFCFB"/>
<path d="M129.413 136.912C131.712 138.423 133.965 139.739 136.228 141.194C132.302 143.623 129.147 145.778 125.653 148.835C122.775 151.352 119.009 155.497 115.681 157.416C115.613 156.946 115.539 156.448 115.836 156.033C117.533 153.668 119.266 151.338 120.904 148.93C123.057 145.765 125.043 142.478 127.296 139.382C127.936 138.503 128.67 137.703 129.413 136.912Z" fill="#A9C4D7"/>
<path d="M92.2325 162.235C99.0784 163.405 103.873 157.101 108.16 157.597C103.348 162.876 97.5756 168.472 89.8885 168.689C88.9081 168.716 88.2106 168.779 87.282 168.406C87.3959 167.358 87.4423 167.238 87.9782 166.329C89.1994 164.773 90.6311 163.395 92.2325 162.235Z" fill="#C6D7DF"/>
<path d="M117.178 64.3077C117.717 63.7356 118.656 63.116 119.371 62.9353C123.31 61.9384 162.71 47.3045 163.895 48.0517C163.984 49.4556 162.71 52.4958 162.347 53.9506C162.14 54.779 160.235 56.3067 159.747 57.2795C160.174 58.1558 160.249 57.9509 160.09 58.7084C158.91 59.5064 155.606 59.1239 154.428 58.1289C153.378 58.0931 152.356 58.4936 151.416 58.9444C151.046 58.7594 150.388 58.4223 149.96 58.5628C144.291 60.4288 138.564 62.245 132.83 63.9065C131.01 64.4341 125.799 66.4452 124.345 65.9776C122.337 66.4387 120.251 67.1712 118.278 67.7875C110.549 70.2013 102.758 72.451 94.9907 74.74L69.354 82.4952C65.1348 83.754 58.2752 85.5404 54.3047 86.9885L53.7827 86.9297L53.4313 86.3703C57.7274 85.0515 62.3324 83.3432 66.6112 81.8686L90.1098 73.7532C98.4511 70.8416 109.151 67.4963 117.178 64.3077Z" fill="#EAEDEE"/>
<path d="M117.178 64.3077C117.717 63.7356 118.656 63.116 119.371 62.9353C123.31 61.9384 162.71 47.3045 163.895 48.0517C163.984 49.4556 162.71 52.4958 162.347 53.9506C162.14 54.779 160.235 56.3067 159.747 57.2795C160.175 58.1558 160.249 57.9509 160.09 58.7084C158.91 59.5064 155.606 59.1239 154.428 58.1289C153.378 58.0931 152.356 58.4936 151.416 58.9444C151.046 58.7594 150.388 58.4223 149.96 58.5628C144.291 60.4288 138.564 62.245 132.83 63.9065C131.01 64.4341 125.799 66.4452 124.345 65.9776C127.631 64.6876 135.054 62.7111 138.727 61.5799C146.317 59.2421 154.099 56.6791 161.703 54.4919C162.335 52.4133 162.919 50.2411 163.51 48.1437C158.579 50.0726 153.399 51.6942 148.395 53.4405L117.178 64.3077Z" fill="#163C60"/>
<path d="M268.97 37.2737C270.224 35.5596 272.241 34.6476 272.835 37.3624L272.851 37.6411C273.909 43.1469 270.532 49.4987 269.037 54.5785C268.155 57.5648 268.04 61.3962 267.449 64.494C265.723 73.5435 263.879 85.3079 256.674 91.9392C247.029 90.7135 248.401 89.7448 240.951 85.5852C231.465 80.2901 226.636 79.2255 220.861 68.6401C224.968 70.4128 226.982 73.5947 230.325 76.2963C233.325 78.6334 236.735 80.3754 239.92 82.4324C242.982 84.4103 245.525 86.8903 248.784 88.5557C254.451 91.4504 256.477 87.3425 258.919 83.0609C259.195 82.7846 259.32 82.4797 259.515 82.1279C259.467 81.2716 259.589 81.5984 259.013 80.9064L258.758 81.096L258.248 81.2553C258.111 80.96 257.991 80.7039 257.746 80.484C257.306 80.9511 257.018 81.6909 256.414 81.5359L256.112 81.6051C255.943 81.0698 260.587 71.3143 261.277 69.7742C263.687 63.6468 265.295 55.8445 268.633 50.7025C267.552 50.6003 266.506 50.3654 265.442 50.151C265.252 48.8884 264.858 47.4199 265.456 46.3423C266.319 45.6505 266.321 45.8382 267.564 45.6287C268.417 44.7872 269.275 43.7577 270.071 42.8451C269.85 42.4465 269.621 42.0513 269.386 41.6601C268.588 41.2459 268.91 41.3506 267.92 41.44C267.523 39.8564 268.081 38.5467 268.97 37.2737Z" fill="#EE7540"/>
<path d="M264.459 66.4739C263.319 70.6643 261.406 77.2948 259.013 80.9065L258.758 81.0961L258.248 81.2554C258.111 80.9601 257.991 80.704 257.746 80.4841C257.306 80.9512 257.018 81.691 256.414 81.536L256.112 81.6052C255.943 81.0699 260.587 71.3144 261.277 69.7743L262.553 69.9247C263.231 68.4694 263.572 67.8038 264.459 66.4739Z" fill="#0A0302"/>
<path d="M256.414 81.5363L256.112 81.6055C255.943 81.0701 260.587 71.3147 261.277 69.7745L262.553 69.9249C261.106 73.4274 259.541 76.6811 257.491 79.8755C257.162 80.3892 256.686 81.0267 256.414 81.5363Z" fill="#D5896D"/>
<path d="M268.97 37.2737C270.224 35.5596 272.241 34.6476 272.835 37.3624L272.851 37.6411C272.561 38.768 272.623 39.0202 271.313 39.0308C269.948 39.7584 268.494 41.1954 267.92 41.44C267.523 39.8564 268.081 38.5467 268.97 37.2737Z" fill="#F0CA92"/>
<path d="M268.97 37.2737C270.225 35.5596 272.241 34.6476 272.835 37.3624C271.984 37.7653 270.244 37.8982 269.323 37.7569L268.97 37.2737Z" fill="#F4E6CE"/>
<path d="M271.313 39.0309C272.489 40.3014 270.948 41.7049 270.071 42.8452C269.85 42.4466 269.621 42.0513 269.386 41.6602C268.588 41.2459 268.91 41.3507 267.92 41.4401C268.494 41.1955 269.948 39.7584 271.313 39.0309Z" fill="#151216"/>
<path d="M182.812 99.4243C193.26 101.064 195.084 102.612 204.578 106.566C203.095 107.398 202.143 107.958 200.735 108.957C198.848 110.574 197.673 111.716 195.935 113.485L194.099 116.129C188.934 113.993 183.56 112.412 178.061 111.411L178.32 110.025C179.851 109.927 181.38 109.803 182.906 109.653C182.627 109.073 182.005 108.868 181.406 108.563C180.308 108.591 163.568 106.162 163.236 106.012L163.462 105.589C166.94 103.48 175.604 102.683 179.347 101.583L179.116 101.26L182.598 101.509C182.305 100.694 182.043 100.406 182.221 99.6713L182.812 99.4243Z" fill="#EE5A2F"/>
<path d="M182.812 99.4243C193.26 101.064 195.084 102.612 204.578 106.566C203.095 107.398 202.143 107.958 200.735 108.957C200.348 108.7 200.006 108.33 199.672 108.001C195.512 105.267 187.468 102.643 182.598 101.509C182.305 100.694 182.043 100.406 182.221 99.6713L182.812 99.4243Z" fill="#FDFCFB"/>
<path d="M199.672 108.001C200.006 108.33 200.348 108.7 200.735 108.957C198.848 110.574 197.673 111.716 195.935 113.485C195.74 111.76 198.403 109.015 199.672 108.001Z" fill="#F0CA92"/>
<path d="M181.406 108.563C182.769 108.856 184.141 109.136 185.49 109.492C184.709 109.57 183.663 109.72 182.906 109.653C182.627 109.072 182.005 108.868 181.406 108.563Z" fill="#892B25"/>
<path d="M224.574 61.1699C225.343 57.0238 226.422 49.6237 224.776 45.6982C230.309 48.2162 233.717 50.7722 235.937 56.661C236.392 57.8917 236.831 59.1274 237.257 60.3679C241.831 62.322 244.736 64.0296 247.361 68.5333C247.053 69.6525 246.056 76.5833 246.085 76.5559C245.813 76.3738 245.448 76.1508 245.21 75.9411C244.087 75.0129 241.876 73.9242 240.542 73.2829C234.469 70.3637 231.532 68.6508 227.653 63.0532C228.499 62.5056 229.475 62.0746 230.388 61.6373C231.989 60.9088 232.791 60.6394 234.469 60.1437C230.426 58.7874 228.28 59.366 224.574 61.1699Z" fill="#FDFCFB"/>
<path d="M227.653 63.053C228.499 62.5054 229.475 62.0744 230.388 61.6371C233.176 65.4985 245.753 70.5723 245.21 75.9409C244.087 75.0127 241.876 73.924 240.542 73.2828C234.469 70.3635 231.532 68.6506 227.653 63.053Z" fill="#EAEDEE"/>
<path d="M16.3147 202.015C22.4701 205.41 28.9713 207.89 34.7585 211.134L34.5093 211.498C35.9787 212.273 38.0163 212.533 38.7056 213.713C38.8729 214.539 38.8289 214.664 38.6157 215.486C38.9601 215.767 38.7881 215.729 39.1577 215.788C41.0066 217.172 44.6769 219.936 46.8292 220.555L47.9643 220.72C49.1525 222.876 50.2997 224.836 51.8732 226.749C45.6291 226.641 39.2822 226.936 32.9617 226.883C29.3441 227.201 9.71392 227.114 6.85266 226.429C11.292 225.92 19.0454 225.211 23.3749 225.177C25.3981 224.726 31.2557 224.219 33.5637 223.969C33.7659 223.599 33.9889 223.361 34.2586 223.041C33.8284 222.681 33.6565 222.446 33.3087 222.023C31.9309 221.182 26.4746 219.094 24.7223 218.396L25.0095 217.384C29.7036 218.384 34.3835 219.45 39.0474 220.581C37.0172 218.568 34.95 217.261 32.8437 215.494C27.9251 211.37 20.6884 206.424 16.3147 202.015Z" fill="#EE5A2F"/>
<path d="M32.9617 226.884C29.3441 227.201 9.71392 227.114 6.85266 226.429C11.292 225.92 19.0454 225.211 23.3749 225.178C22.0281 225.656 20.1601 225.697 19.1125 226.338H19.3367C20.8927 226.338 22.1728 226.552 23.6525 226.602C26.3811 226.694 30.2816 226.437 32.9617 226.884Z" fill="#892B25"/>
<path d="M33.3087 222.023C34.5698 222.537 35.9806 223.08 37.2052 223.649C36.0287 223.75 34.7251 223.834 33.5637 223.969C33.7659 223.599 33.9889 223.361 34.2586 223.042C33.8284 222.681 33.6565 222.446 33.3087 222.023Z" fill="#380B0A"/>
<path d="M18.7039 188.082C22.1561 191.335 27.4266 195.225 31.212 198.209C34.4773 200.783 38.602 204.52 41.8449 206.851C40.6894 203.081 36.002 191.978 34.0172 188.663L34.6565 188.198C38.5369 194.183 43.2557 200.89 47.3519 206.842C47.3302 212.577 46.3626 214.85 47.9643 220.721L46.8291 220.555C44.6769 219.937 41.0066 217.172 39.1577 215.788C38.788 215.729 38.9601 215.767 38.6157 215.486C38.8289 214.664 38.8729 214.539 38.7056 213.713C38.0163 212.534 35.9787 212.273 34.5092 211.498L34.7585 211.134L37.9588 212.341C36.8413 210.913 35.6881 209.135 34.5073 207.827C29.1104 201.848 23.9887 194.31 18.2383 188.762L18.7039 188.082Z" fill="#EE7540"/>
<path d="M41.2174 212.243C42.8013 214.086 46.9847 218.365 46.8292 220.555C44.6769 219.937 41.0067 217.172 39.1577 215.788L39.4444 215.223C39.281 213.873 39.0923 213.649 40.358 213.144L40.5334 213.178C40.7139 212.742 40.9021 212.585 41.2174 212.243Z" fill="#FDFCFB"/>
<path d="M39.4444 215.223C39.281 213.873 39.0923 213.649 40.3579 213.144L40.5334 213.179C40.8571 214.047 41.2268 214.565 41.0688 215.35C40.4065 215.588 40.1637 215.431 39.4444 215.223Z" fill="#EE5A2F"/>
<path d="M38.9317 209.429C39.7037 210.359 40.4658 211.297 41.2174 212.243C40.902 212.586 40.7138 212.742 40.5334 213.179L40.3579 213.144C40.2199 212.465 39.2408 210.19 38.9317 209.429Z" fill="#F4E6CE"/>
<path d="M238.264 15.6347C240.552 17.11 243.34 19.2998 245.472 20.5204C245.154 23.0759 244.775 25.4291 244.337 27.9688L244.433 28.5822C243.229 29.1994 243.71 28.0858 242.878 29.1281C242.427 30.8124 243.501 32.519 242.6 35.7672L242.268 36.1555C241.725 36.1591 238.084 34.6826 237.204 34.3883C237.726 35.5327 238.927 37.2216 237.92 38.1216C236.98 38.2951 235.548 37.8175 234.572 37.5618C235.373 38.5159 236.399 39.4933 237.288 40.3833C236.43 40.2596 234.82 39.73 234.265 40.0436C234.495 41.9417 235.764 42.417 233.195 44.2334C232.255 44.8963 231.049 43.6801 230.924 42.804C230.371 38.8831 232.027 35.5928 233.858 32.2852C230.936 26.159 229.614 23.6369 237.625 21.8238C237.726 19.7469 237.887 17.6799 238.264 15.6347Z" fill="#FDFCFB"/>
<path d="M238.483 24.3304C240.936 24.947 242.044 25.983 243.667 27.904L243.849 28.1248L244.337 27.9691L244.433 28.5825C243.229 29.1998 243.71 28.0861 242.878 29.1284C242.427 30.8127 243.501 32.5194 242.6 35.7676C242.34 33.688 242.511 31.4763 242.169 28.9864L239.326 30.1738C238.225 27.5364 237.382 26.8927 235.18 25.144L238.483 24.3304Z" fill="#163C60"/>
<path d="M226.454 138.478C229.749 135.669 229.6 130.803 227.422 127.381L233.217 131.333C232.899 134.841 232.162 139.538 229.258 141.88C227.218 143.528 223.855 144.763 221.502 146.183C217.921 148.346 214.367 150.988 210.704 152.956C202.893 157.154 194.913 160.531 187.028 164.648L186.785 163.569C190.602 161.048 194.051 159.055 198.091 156.719C204.2 153.185 211.475 149.723 216.761 144.994C217.89 143.981 219.467 141.017 220.404 139.631C221.034 139.039 220.954 137.807 220.762 137.047C221.178 135.622 221.183 135.167 221.24 133.665C221.767 134.716 223.754 139.987 223.99 140.159L224.687 140.109C225.021 139.668 225.994 138.876 226.454 138.478Z" fill="#E8582F"/>
<path d="M220.762 137.047C221.178 135.622 221.183 135.167 221.24 133.665C221.767 134.716 223.754 139.987 223.99 140.159L224.687 140.109L224.855 140.086C224.562 141.398 220.101 143.916 218.861 144.643C219.808 142.729 220.036 141.727 220.404 139.631C221.034 139.039 220.954 137.807 220.762 137.047Z" fill="#151216"/>
<path d="M63.0827 125.499C67.1409 124.45 72.5202 122.47 76.6344 121.144C86.0106 118.176 95.3656 115.141 104.699 112.041C111.058 109.958 117.611 108.053 123.987 105.975C127.568 104.809 131.507 103.816 135.006 102.528C134.399 104.353 134.015 105.523 133.624 107.425C121.607 110.11 107.655 114.34 95.5882 117.589L75.1346 123.128C71.4802 124.112 66.6652 125.251 63.1832 126.421C62.9157 125.873 62.9774 126.167 63.0827 125.499Z" fill="#FDFCFB"/>
<path d="M149.45 63.1628C152.878 61.9283 156.387 60.9196 159.766 59.7161L157.961 65.3245C156.992 65.5456 155.752 65.869 154.8 66.0384C149.357 68.1585 138.306 70.8351 132.322 72.412C121.753 75.1977 111.21 78.3453 100.7 81.1298L100.619 80.9505C101.037 80.4544 101.032 80.3772 101.225 79.7403C112.022 76.0714 122.795 72.3337 133.545 68.5276C138.832 66.7034 144.172 65.0424 149.45 63.1628Z" fill="#EE7540"/>
<path d="M149.45 63.1628C152.878 61.9283 156.387 60.9196 159.766 59.7161L157.961 65.3245C156.992 65.5456 155.752 65.869 154.8 66.0384L154.697 65.7837C155.281 65.5247 155.673 65.3743 156.281 65.1758C156.173 64.7222 155.663 64.097 155.377 63.6916L155.144 63.7546C151.279 64.7801 152.786 63.5199 149.45 63.1628Z" fill="#F6A560"/>
<path d="M111.962 169.662C116.417 167.248 120.514 165.169 125.106 163.071C128.913 161.332 129.659 159.333 134.268 158.548C132.867 160.69 130.991 163.602 128.741 164.887C123.873 167.595 118.289 168.228 113.248 170.711C109.952 172.335 107.63 175.033 104.625 176.817C94.5884 182.777 84.6349 188.259 75.8888 196.142L75.0553 195.684C76.4745 194.186 77.9113 192.708 79.5165 191.407C83.3798 188.274 87.2829 185.187 91.1803 182.096C94.8035 179.222 98.9683 177.097 102.727 174.417C106.691 171.591 110.33 168.272 114.553 165.814C113.747 166.993 112.68 168.462 111.962 169.662Z" fill="#DB402F"/>
<path d="M50.6277 188.84C51.092 185.432 52.3728 184.667 55.5184 185.226C55.4732 186.021 55.4403 187.173 55.3478 187.932C56.2563 188.44 56.6086 188.693 56.599 189.765C56.1952 191.692 56.6535 193.691 56.1652 195.45L56.1818 195.19L55.5593 196.007L55.2326 195.944C55.4158 198.968 56.2212 201.941 55.9726 204.962C55.8287 206.708 54.906 208.38 54.4955 210.062C51.9205 220.615 55.9193 223.054 64.264 227.453C57.0775 226.586 51.3627 223.808 51.1454 215.631C50.5448 212.236 52.2411 207.91 51.969 204.679C51.7174 201.688 50.7755 199.086 50.5366 195.786C50.4479 193.874 50.3278 190.671 50.6277 188.84Z" fill="#EAEDEE"/>
<path d="M50.5366 195.786C51.1932 195.76 52.4925 195.646 53.0381 195.909C56.5928 206.178 51.7371 208.052 51.1454 215.631C50.5448 212.236 52.2411 207.911 51.9691 204.679C51.7174 201.689 50.7755 199.086 50.5366 195.786Z" fill="#55B8E1"/>
<path d="M55.3478 187.932C56.2563 188.44 56.6086 188.693 56.599 189.765C56.1952 191.692 56.6536 193.69 56.1652 195.45L56.1818 195.19L55.5593 196.007L55.2326 195.944C54.8123 193.019 55.0781 190.849 55.3478 187.932Z" fill="#151216"/>
<path d="M50.5366 195.786C50.4479 193.874 50.3278 190.671 50.6277 188.84C50.5116 193.212 51.7292 192.015 53.0381 195.909C52.4925 195.646 51.1932 195.76 50.5366 195.786Z" fill="#A9C4D7"/>
<path d="M158.081 124.149C145.405 121.391 137.566 111.479 142.446 98.3566C144.214 93.6019 148.213 91.0517 152.705 89.1757C145.512 96.7394 142.512 105.084 148.713 114.631C152.842 120.988 158.571 122.427 165.587 123.809C166.94 123.941 168.055 124.133 169.396 124.372C168.171 124.481 166.476 124.58 165.299 124.756C163.84 124.758 162.917 124.738 161.475 124.578C160.59 124.562 159.014 124.285 158.081 124.149Z" fill="#179DDD"/>
<path d="M165.587 123.809C166.94 123.941 168.055 124.133 169.396 124.372C168.171 124.481 166.476 124.58 165.299 124.756C163.84 124.758 162.917 124.738 161.475 124.578C162.71 124.536 164.65 124.625 165.587 123.809Z" fill="#1894D0"/>
<path d="M77.0257 207.922L77.7287 208.844C75.8769 211.404 73.7311 214.25 72.0691 216.903C73.0725 216.624 74.1872 216.373 75.0955 215.883L76.1552 217.234L76.1737 217.267C77.0466 217.696 82.6665 215.687 83.9456 215.274C82.4533 216.978 80.5916 216.373 79.1469 217.535C79.2455 218.07 79.5933 218.162 80.1391 218.574L80.7279 218.598L80.3465 218.707L80.4794 218.78L80.8411 218.563L81.0625 218.715L80.8728 218.894L80.5183 218.774L80.4316 218.881L80.7702 218.886L80.277 219.119L80.6967 218.868C80.0972 219.188 79.7906 219.941 79.9514 220.598C81.7102 220.117 84.0836 218.057 85.1199 218.643C83.3459 219.708 80.4806 220.92 78.522 221.804C81.9464 221.177 85.466 221.028 88.9382 220.68C93.2906 220.24 97.6456 219.66 101.993 219.226C102.881 219.269 103.67 219.298 104.563 219.296C103.781 219.58 102.771 219.918 102.022 220.23C91.3089 222.075 82.1793 224.269 71.1284 225.872C70.4954 222.611 69.7791 221.405 67.8807 218.768C69.1982 216.179 74.759 210.399 77.0257 207.922Z" fill="#EE5A2F"/>
<path d="M82.8643 171.425C83.563 171.781 83.6966 171.7 83.8262 172.588L85.03 172.973C88.078 173.311 91.1599 173.176 94.1666 172.573C89.4814 175.413 81.5766 180.031 77.3321 183.467C78.2507 184.487 78.3144 183.545 78.5314 184.306L77.9974 184.505C77.4213 185.162 68.4414 194.252 68.3241 194.318L67.8593 194.186C66.4035 192.218 67.9316 187.267 69.0096 185.366C69.7784 184.01 72.7767 182.129 74.0875 180.89C77.223 177.936 80.1552 174.774 82.8643 171.425Z" fill="#FDFCFB"/>
<path d="M85.03 172.972C88.078 173.311 91.1599 173.176 94.1666 172.573C89.4814 175.413 81.5765 180.031 77.3321 183.467L77.0824 183.441C76.9064 182.578 77.2126 182.117 77.5585 181.288C79.2385 179.955 84.183 174.847 85.03 172.972Z" fill="#EAEDEE"/>
<path d="M73.6066 185.989C73.7133 183.402 75.525 182.475 77.5585 181.288C77.2126 182.117 76.9064 182.578 77.0824 183.44C75.9883 184.372 74.7874 185.17 73.6066 185.989Z" fill="#D1E6F0"/>
<path d="M77.0824 183.441L77.3321 183.467C78.2507 184.487 78.3144 183.545 78.5314 184.306L77.9974 184.505C76.699 184.941 73.5619 186.822 72.2155 187.589L72.039 187.185L73.6066 185.989C74.7874 185.17 75.9883 184.372 77.0824 183.441Z" fill="#163C60"/>
<path d="M72.2154 187.59C71.7765 188.06 70.5758 188.737 69.9134 188.736C70.2434 188.039 71.2995 187.601 72.039 187.185L72.2154 187.59Z" fill="#A09EA7"/>
<path d="M154.676 177.882C153.027 175.725 148.684 168.679 152.053 166.037C152.354 165.801 153.75 165.313 154.188 165.154C154.841 171.538 158.632 175.304 161.511 180.677C163.604 184.585 164.469 189.163 166.907 192.901C168.755 195.797 170.204 196.954 172.598 199.103C174.576 200.88 177.883 202.52 179.505 203.96C173.225 202.805 168.103 199.108 164.198 194.046C162.727 192.141 162.023 189.777 161.112 187.594C159.559 183.68 157.002 181.393 154.676 177.882Z" fill="#EAEDEE"/>
<path d="M154.675 177.882C155.132 177.033 154.837 175.669 154.726 174.642C156.73 176.947 161.845 182.668 161.79 186.065C161.785 186.351 161.278 187.289 161.112 187.594C159.559 183.68 157.002 181.393 154.675 177.882Z" fill="#5FB4D4"/>
<path d="M112.38 47.6735C114.789 43.851 116.545 43.2152 119.693 40.6133C127.393 34.2507 136.237 33.4216 144.928 29.3567C146.736 28.5107 149.623 25.9515 151.4 24.5947C144.207 35.269 141.204 33.5189 130.398 36.9747C126.986 38.0797 123.749 39.6669 120.787 41.6883C115.747 45.0857 115.608 46.5177 115.189 52.5387C114.975 55.6209 110.522 61.7826 107.412 61.3211C106.676 59.7293 111.231 55.748 111.716 53.2725L111.504 52.8583C110.72 52.7912 109.638 53.464 108.973 53.9044L107.844 53.6867C109.22 52.9705 110.052 52.4654 111.343 51.6019C111.774 50.5002 112.103 48.8611 112.38 47.6735Z" fill="#DB402F"/>
<path d="M102.813 88.9158C114.477 85.2387 125.934 80.6909 137.551 76.8595C142.656 75.1757 150.236 72.0596 155.437 71.0844C153.801 72.7653 151.106 75.7514 149.076 76.7367C144.591 78.9136 138.834 80.0688 133.917 81.3732C123.784 84.0619 113.953 86.7784 103.891 89.6977C103.085 89.7974 102.457 89.868 101.635 89.9012L101.669 89.6313L102.813 88.9158Z" fill="#1894D0"/>
<path d="M226.761 1.9472L227.23 2.33911C228.198 3.16828 228.792 3.36677 230.066 3.53518C229.174 3.70171 228.518 3.76524 227.715 4.18919C225.766 4.126 223.841 4.14066 221.971 4.77642L221.894 5.04624L222.457 5.08636C226.004 4.85522 231.568 9.17457 232.907 12.1184C231.121 12.3639 224.221 5.29108 220.976 7.57869L222.56 7.41531L222.822 7.77548C222.173 8.70628 221.822 9.74762 221.772 10.8776C221.632 14.0708 218.224 13.7335 216.816 14.9889C214.965 16.6362 215.975 21.9596 213.028 23.6682C212.41 24.0245 212.278 23.9606 211.648 23.8104L211.403 23.3217C211.338 21.9361 212.24 20.9663 212.348 19.851C213.047 12.6455 214.831 4.48184 222.752 2.14872C223.73 1.86061 225.473 2.31499 226.761 1.9472Z" fill="#163C60"/>
<path d="M227.23 2.33887C228.198 3.16804 228.792 3.36653 230.066 3.53493C229.174 3.70147 228.518 3.76499 227.715 4.18895C225.766 4.12576 223.841 4.14042 221.971 4.77617L221.894 5.046L222.457 5.08612C225.415 5.98978 226.566 6.63058 229.035 8.55635L228.191 8.78269C224.471 6.37469 222.3 5.90593 218.549 8.37999C217.494 9.05612 216.583 9.80192 215.893 10.8721C215.547 11.5761 215.287 12.3639 214.655 12.7373L214.213 12.6032C216.652 4.17406 219.39 3.49012 227.23 2.33887Z" fill="#EDEEF0"/>
<path d="M218.549 8.38004C219.222 8.72267 221.548 8.00186 222.56 7.7724C218.787 10.2832 217.354 11.3248 215.537 15.5495C215.093 17.3121 214.444 23.1826 212.16 23.1769C211.997 22.3434 213.821 13.8246 214.213 12.6033L214.655 12.7374C215.287 12.364 215.547 11.5761 215.893 10.8721C216.583 9.80197 217.494 9.05617 218.549 8.38004Z" fill="#1894D0"/>
<path d="M229.035 8.55652C230.124 9.29535 231.138 10.5126 232.039 11.5006C230.503 10.5926 229.595 9.8016 228.191 8.78285L229.035 8.55652Z" fill="#8295A9"/>
<path d="M223.872 0C233.818 1.29398 237.437 3.20846 244.924 9.67429C244.191 6.56782 243.532 5.73264 241.72 3.0747C245.231 6.10987 247.577 7.85856 249.413 12.2103C248.543 12.737 248.421 12.9595 247.37 12.67L247.325 13.4463C247.339 14.5311 247.431 15.4237 246.974 16.4199C246.57 15.9711 246.575 16.101 245.842 15.9401C243.893 16.0061 244.484 13.5213 242.653 13.1349C242.429 13.6712 242.419 13.7445 242.066 14.2284C241.391 13.9052 239.353 11.6738 238.68 11.0095C235.522 7.90421 231.938 5.55412 227.715 4.18914C228.518 3.76519 229.174 3.70166 230.066 3.53513C228.792 3.36672 228.198 3.16823 227.23 2.33906L226.761 1.94716C225.821 1.26577 224.858 0.616367 223.872 0Z" fill="#FDFCFB"/>
<path d="M230.066 3.53503C234.01 4.97233 237.925 6.40747 241.165 9.21455C242.369 10.2588 243.768 12.205 245.018 12.9589C245.897 12.2751 245.183 11.4378 246.056 11.0449C246.798 11.5937 246.904 11.8859 247.37 12.6699L247.325 13.4462C247.339 14.531 247.431 15.4236 246.974 16.4198C246.57 15.971 246.575 16.101 245.842 15.94C243.893 16.006 244.484 13.5212 242.653 13.1348C242.429 13.6711 242.419 13.7444 242.066 14.2283C241.391 13.9051 239.353 11.6737 238.68 11.0094C235.522 7.90412 231.938 5.55403 227.715 4.18905C228.518 3.76509 229.174 3.70157 230.066 3.53503Z" fill="#D78446"/>
<path d="M245.842 15.9399C246.592 14.9576 246.017 14.8265 246.589 13.6068L247.325 13.4461C247.339 14.5309 247.43 15.4235 246.974 16.4197C246.57 15.9709 246.575 16.1009 245.842 15.9399Z" fill="#9B5546"/>
<path d="M60.7675 46.5418C78.6766 40.35 96.4715 33.6016 114.419 27.6556C112.596 29.0604 106.951 33.7604 105.013 34.4605C93.7549 38.529 81.6758 41.0363 70.2606 44.7619C67.42 45.6889 64.4563 46.3571 61.7008 47.3302C61.2131 47.1543 61.0987 46.9385 60.7675 46.5418Z" fill="#1894D0"/>
<path d="M82.15 131.596C88.6359 129.193 96.0069 126.97 102.659 124.714C111.758 121.629 121.717 118.147 130.925 115.563C129.756 116.837 127.082 120.178 125.863 120.658C122.085 122.146 116.711 123.337 112.748 124.363L97.2939 128.515C92.9149 129.662 87.9785 130.827 83.6666 132.145C82.4175 132.002 82.002 132.562 80.258 132.545C81.156 132.224 81.5869 132.236 82.15 131.596Z" fill="#EE7540"/>
<path d="M125.766 130.195C130.055 122.821 137.55 118.288 138.302 109.658C140.05 114.734 140.412 116.218 143.203 120.812L141.969 121.622L139.554 120.199C136.913 122.152 132.391 127.805 130.778 130.698C132.162 132.814 133.416 133.905 135.295 135.549L134.981 135.972C131.841 134.157 128.813 132.163 125.766 130.195Z" fill="#1894D0"/>
<path d="M177.606 189.85L177.722 190.151C178.64 192.472 182.839 198.69 182.517 200.246C179.565 202.359 170.081 192.393 168.584 189.972C166.212 186.136 166.462 181.25 164.59 176.915C168.788 181.495 167.909 186.829 172.617 190.899C173.066 191.287 173.549 191.832 174.121 191.892C174.242 191.156 174.042 190.725 173.828 190.011C173.372 189.566 173.54 189.826 173.35 189.18C173.773 188.544 173.65 188.741 174.499 188.399C175.53 188.413 176.33 188.378 177.361 188.313L177.606 189.85Z" fill="#EE5A2F"/>
<path d="M174.499 188.399C175.53 188.413 176.33 188.378 177.361 188.313L177.606 189.85C176.47 189.891 174.929 189.9 173.828 190.011C173.372 189.566 173.54 189.825 173.35 189.18C173.773 188.544 173.65 188.741 174.499 188.399Z" fill="#FDFCFB"/>
<path d="M158.218 125.199L157.435 124.509L157.49 124.247L158.081 124.148C159.014 124.285 160.59 124.562 161.475 124.577C162.917 124.737 163.84 124.758 165.299 124.756C168.13 124.717 171.6 126.341 173.884 127.923L173.96 128.226C176.241 129.395 183.327 130.451 186.112 129.71L184.742 133.615C182.303 133.162 179.878 132.644 177.467 132.062C174.739 131.404 159.473 127.25 158.218 125.199Z" fill="#DB402F"/>
<path d="M158.218 125.199L157.435 124.509L157.49 124.247L158.081 124.148C159.014 124.285 160.59 124.562 161.475 124.577C162.917 124.737 163.84 124.758 165.299 124.756C168.13 124.717 171.6 126.341 173.884 127.923L173.96 128.226C171.665 127.765 169.046 126.77 166.719 126.339C163.931 125.822 161.057 125.6 158.218 125.199Z" fill="#161629"/>
<path d="M114.384 190.655C121.341 187.995 128.246 185.201 135.096 182.276C138.205 180.956 145.125 177.793 148.193 176.834C148.92 178.107 149.587 179.273 150.39 180.507C144.304 182.382 138.198 184.192 132.074 185.938C128.235 187.013 118.396 189.734 114.995 191.23L114.384 190.655Z" fill="#FDFCFB"/>
<path d="M89.6282 28.6982C102.067 24.2811 115.649 19.9286 128.226 15.8108L128.493 16.589C126.823 17.665 123.879 19.7368 122.248 20.5266C119.313 21.9468 115.127 22.5434 111.99 23.4447C104.863 25.4927 97.7618 27.2181 90.6289 29.2789L89.6282 28.6982Z" fill="#FDFCFB"/>
<path d="M163.792 160.628L165.005 160.598L165.313 160.932C165.464 162.136 164.664 164.617 164.347 166.022C163.421 170.126 169.473 171.588 170.971 173.729L170.749 173.983C167.709 174.018 164.299 172.002 163.003 169.233C162.15 167.404 162.22 165.539 162.203 163.578C158.749 163.372 160.448 172.026 160.706 173.719C158.682 171.147 157.999 169.509 157.084 166.479C156.954 167.327 156.814 168.174 156.665 169.019L156.334 169.148C155.57 168.443 154.738 165.742 155.103 164.846C156.774 163.224 161.501 161.325 163.792 160.628Z" fill="#1894D0"/>
<path d="M83.9456 215.274C85.1348 214.793 86.3752 214.383 87.5993 213.996C95.4116 211.526 103.038 208.63 110.741 205.844L110.97 206.61C106.018 208.773 101.104 211.023 96.2323 213.361C93.0742 214.884 88.2727 217.383 85.1199 218.643C84.0836 218.058 81.7102 220.118 79.9514 220.598C79.7906 219.942 80.0973 219.188 80.6967 218.868L80.277 219.12L80.7702 218.886L80.4316 218.881L80.5183 218.774L80.8728 218.894L81.0625 218.715L80.8411 218.563L80.4794 218.78L80.3465 218.707L80.7279 218.598L80.1391 218.575C79.5933 218.162 79.2455 218.071 79.1469 217.535C80.5916 216.373 82.4533 216.978 83.9456 215.274Z" fill="#EE7540"/>
<path d="M75.1868 154.418C81.6083 151.578 88.3871 149.297 95.0136 146.983C100.509 145.064 106.098 144.172 111.865 143.483C106.139 147.574 100.034 147.943 93.3804 149.856C87.5916 151.52 81.8087 153.059 76.0958 155.017L75.1868 154.418Z" fill="#EAEDEE"/>
<path d="M55.5185 185.227C59.0558 184.73 63.1159 184.685 66.6499 185.222C65.3809 187.744 62.7359 191.698 63.5531 194.41C63.9306 195.662 66.0769 198.906 66.31 199.963C64.0388 200.231 62.1483 195.836 62.0368 193.949C61.9558 192.577 62.5287 188.284 61.8481 187.713C59.4632 188.494 57.5441 193.416 56.655 195.675C56.6637 193.71 56.6985 191.727 56.599 189.765C56.6086 188.693 56.2563 188.44 55.3478 187.932C55.4403 187.173 55.4733 186.021 55.5185 185.227Z" fill="#1894D0"/>
<path d="M259.443 50.9433C260.664 51.7854 259.702 54.8799 259.565 56.106C258.813 62.8804 256.028 67.8829 251.86 73.134C250.795 74.4752 249.661 77.2006 248.974 78.7803L248.608 78.5888C247.563 70.1171 253.1 67.9153 256.299 60.7812C258.042 56.9008 258.222 54.8398 259.443 50.9433Z" fill="#FDFCFB"/>
<path d="M152.57 27.6687C153.733 27.5862 159.511 30.4813 160.982 31.2718C163.647 32.7064 179.161 35.4623 179.371 37.8266C169.867 36.4515 160.492 36.378 153 29.0413C152.421 28.4755 152.524 28.3183 152.57 27.6687Z" fill="#D85D50"/>
<path d="M218.556 31.2514L218.739 31.429C218.83 32.1409 217.47 36.1635 217.186 37.0054C215.775 41.1924 214.895 45.3724 213.941 49.6758C215.169 49.3709 217.301 48.4769 217.998 49.7724C217.768 51.0478 216.657 52.3316 215.828 53.2953C215.15 53.654 215.119 53.6985 214.396 53.5848C213.006 52.7679 212.129 50.4541 211.627 49.0016C209.738 43.5401 215.6 36.5568 218.556 31.2514Z" fill="#FDFCFB"/>
<path d="M109.86 104.296C116.423 102.184 122.986 99.5787 129.616 97.5086C132.857 96.4963 135.223 95.4297 138.674 94.6371C137.977 95.8641 137.269 97.1852 136.453 98.3276L119.165 103.144C116.612 103.835 113.617 104.413 111.173 105.219L110.76 104.975L111.361 104.758L111.238 104.474C110.578 104.544 110.476 104.539 109.86 104.296Z" fill="#22A9DC"/>
<path d="M146.165 147.416C146.831 147.748 147.6 148.737 148.132 149.331C147.937 149.549 147.733 149.757 147.52 149.958C142.074 155.044 134.825 157.749 127.377 157.476C126.568 157.382 125.305 157.089 124.468 156.922C129.699 155.736 134.859 154.383 139.477 151.587C141.768 150.2 143.812 148.738 146.165 147.416Z" fill="#DB402F"/>
<path d="M163.945 131.925C164.84 132.113 165.258 132.141 166.044 132.626L166.039 133.046C163.549 136.644 154.957 144.354 151.551 147.493L151.395 147.652L151.094 147.645C150.643 146.46 150.272 145.6 149.729 144.455C155.074 140.339 159.206 136.614 163.945 131.925Z" fill="#DB402F"/>
<path d="M182.959 4.20836C186.3 3.97458 189.628 3.84404 192.971 3.67837C199.975 3.33121 207.18 2.43723 214.186 2.56674C213.3 3.43522 212.244 4.41283 211.437 5.33547L187.499 4.88641C186.588 4.70764 184.36 4.69539 183.122 4.52912L182.959 4.20836Z" fill="#EAEDEE"/>
<path d="M176.763 98.786L179.241 98.9191L179.267 99.064C180.628 99.1322 181.469 99.2094 182.812 99.4242L182.221 99.6712C182.043 100.405 182.305 100.694 182.598 101.509L179.116 101.259C178.104 101.272 176.621 101.137 175.571 101.072C169.271 100.859 163.558 101.795 157.326 102.331C164.258 99.5443 169.392 98.8023 176.763 98.786Z" fill="#EE7540"/>
<path d="M179.267 99.0638C180.628 99.1321 181.469 99.2092 182.812 99.424L182.221 99.671C182.043 100.405 182.305 100.694 182.598 101.509L179.116 101.259C178.104 101.271 176.621 101.137 175.571 101.072C175.429 100.261 175.383 100.198 175.684 99.4689C176.53 98.7529 178.104 99.0117 179.267 99.0638Z" fill="#F6A560"/>
<path d="M254.598 34.9328C255.857 34.9139 259.085 34.9307 259.866 35.9768C259.106 37.251 256.946 37.3716 255.578 38.0982C255.537 38.4297 255.684 39.986 255.893 40.1148C258.342 41.6179 259.873 42.6542 261.798 44.8106C262.075 45.6583 262.13 45.8 262.096 46.6847C260.318 49.1386 250.829 40.683 254.598 34.9328Z" fill="#FDFCFB"/>
<path d="M234.44 88.3818L237.954 89.8523C232.789 91.4857 227.61 93.0662 222.413 94.594C220.863 95.0566 216.434 96.2596 215.162 96.8293C214.758 96.7538 214.684 96.7163 214.297 96.5832L214.328 96.0604C218.835 94.2687 229.987 89.5988 234.44 88.3818Z" fill="#1894D0"/>
<path d="M161.931 91.8662C167.851 91.7821 176.21 94.0133 180.51 98.1245L180.543 98.6279C179.959 98.8826 179.887 98.8689 179.241 98.9191L176.763 98.786C175.883 98.5666 174.172 98.4989 173.247 98.5138L173.042 98.5186L173.251 98.1839L172.968 98.5366L173.602 97.8446C173.521 97.4121 173.456 97.2151 173.324 96.803C171.199 95.2915 164.575 92.7537 161.931 91.8662Z" fill="#EE7540"/>
<path d="M173.324 96.803C176.511 98.1968 177.272 97.7285 180.51 98.1245L180.543 98.6278C179.959 98.8825 179.887 98.8688 179.241 98.919L176.763 98.7859C175.883 98.5666 174.172 98.4988 173.247 98.5137L173.042 98.5185L173.251 98.1838L172.968 98.5365L173.602 97.8446C173.521 97.4121 173.456 97.215 173.324 96.803Z" fill="#151216"/>
<path d="M135.137 192.379C141.113 190.843 148.599 186.935 154.361 185.368L156.036 187.896L142.729 191.295C141.018 191.736 136.68 192.827 135.275 193.435L134.305 193.304L134.265 193.063L135.137 192.379Z" fill="#DB402F"/>
<path d="M170.202 51.053L170.319 51.3149C170.824 52.4333 172.641 55.2637 172.797 55.7902C173.268 57.3697 173.85 60.4867 174.22 62.1934C174.939 65.4027 175.744 68.592 176.635 71.7581C173.874 66.9555 172.381 63.2878 170.161 58.4435L169.855 58.4894C169.625 57.5953 170.175 52.5958 170.202 51.053Z" fill="#5FB4D4"/>
<path d="M242.946 93.6539L246.673 95.06C243.655 95.7347 240.811 96.7719 237.863 97.6907C233.568 99.0286 229.246 100.274 224.898 101.426L223.961 100.849C229.292 98.7813 237.685 95.3226 242.946 93.6539Z" fill="#D0E0ED"/>
<path d="M175.53 160.7C177.621 159.662 179.529 158.627 181.572 157.495C180.267 158.842 169.742 167.433 168.5 167.347C167.791 166.324 168.094 164.093 168.315 162.924C168.368 162.654 168.435 162.388 168.519 162.126C169.94 162.484 169.908 162.657 170.975 162.11C171.915 161.484 173.946 160.65 175.047 160.159L175.53 160.7Z" fill="#D1E6F0"/>
<path d="M175.047 160.159L175.53 160.7C174.028 161.327 172.591 161.839 170.975 162.11C171.915 161.484 173.946 160.649 175.047 160.159Z" fill="#294A5E"/>
<path d="M174.41 171.678C184.151 171.718 178.356 175.379 177.407 179.277C176.664 178.929 175.475 178.512 174.674 178.206C174.72 176.011 174.552 173.868 174.41 171.678Z" fill="#DB402F"/>
<path d="M180.673 76.9572C183.142 81.3286 184.648 86.587 185.824 91.4407C186.117 92.6471 186.292 94.9193 186.487 95.4811L186.932 95.6843L187.057 96.8991C186.278 96.699 185.305 96.5188 184.499 96.3492C183.62 92.9863 183.25 88.9844 182.61 85.5235C182.07 82.5867 181.387 79.8534 180.673 76.9572Z" fill="#D85D50"/>
<path d="M21.4774 150.876C22.4667 150.923 22.9187 150.989 23.6417 151.759C25.1484 153.363 27.5593 161.541 27.4494 163.493C25.4714 161.045 20.2613 154.042 21.4774 150.876Z" fill="#EE7540"/>
<path d="M174.167 180.106C175.126 180.02 176.08 180.599 176.972 181.023C176.921 181.408 176.859 181.763 176.854 182.152L176.936 182.54C177.085 183.666 177.063 184.728 177.068 185.862L177.361 188.313C176.33 188.378 175.53 188.412 174.499 188.399L174.999 188.14C174.636 186.953 172.314 186.951 172.701 185.439L173.456 184.999C174.323 184.713 174.307 184.197 174.439 183.451C173.537 183.246 172.454 183.147 172.05 182.259C172.562 181.595 172.785 181.684 173.677 181.372C174.097 180.865 174.071 180.786 174.167 180.106Z" fill="#F3B9A9"/>
<path d="M174.167 180.106C175.126 180.02 176.08 180.599 176.972 181.023C176.921 181.408 176.859 181.763 176.854 182.152L176.936 182.54L176.789 183.569L176.414 183.804C175.677 183.561 175.186 183.307 174.439 183.451C173.537 183.246 172.454 183.147 172.05 182.259C172.562 181.595 172.785 181.684 173.677 181.372C174.097 180.865 174.071 180.786 174.167 180.106Z" fill="#F3B9A9"/>
<path d="M174.167 180.106C175.126 180.02 176.08 180.599 176.972 181.023C176.921 181.408 176.859 181.763 176.854 182.152C175.749 181.947 174.718 181.804 173.677 181.372C174.097 180.865 174.071 180.786 174.167 180.106Z" fill="#D5896D"/>
<path d="M176.936 182.54C177.085 183.666 177.063 184.728 177.068 185.862C176.486 185.049 174.484 185.098 173.456 184.999C174.323 184.713 174.307 184.197 174.439 183.451C175.186 183.307 175.676 183.561 176.414 183.804L176.789 183.569L176.936 182.54Z" fill="#D85D50"/>
<path d="M173.081 41.2578C175.624 41.8752 175.169 42.0506 175.436 44.659C175.59 46.1605 175.54 47.6552 175.876 49.1331C176.22 50.6545 177.916 52.7552 178.126 54.1408C173.069 51.068 172.643 46.5596 173.081 41.2578Z" fill="#D85D50"/>
<path d="M73.0442 200.568C73.4751 201.318 74.1226 202.378 74.4723 203.137C72.341 204.241 70.4197 205.049 68.8159 206.856L67.9487 206.189C68.5383 204.84 67.7471 202.83 67.3368 201.289C69.104 201.084 71.3397 200.881 73.0442 200.568Z" fill="#DB402F"/>
<path d="M144.423 45.2086C145.927 45.1281 146.443 46.5289 145.906 47.6056C144.693 48.1851 135.418 50.0917 133.527 50.5078C132.965 50.6551 132.824 50.7351 132.248 50.5991C133.251 49.725 142.682 45.952 144.423 45.2086Z" fill="#1894D0"/>
<path d="M96.6029 197.018C97.2644 197.066 96.9793 196.939 97.4554 197.475C97.7075 198.603 97.4338 200.046 97.2853 201.224C94.3291 201.917 92.2934 202.906 89.7318 204.378C89.4379 204.554 89.5883 204.482 89.1959 204.492L89.2622 204.009C90.9859 201.529 94.1243 198.753 96.6029 197.018Z" fill="#EE5A2F"/>
<path d="M71.3507 161.952C76.3857 160.138 81.6095 158.175 86.7031 156.598C84.5602 159.071 83.4539 159.983 80.136 160.778C77.3917 161.435 74.5894 162.088 71.9014 162.939L71.3507 161.952Z" fill="#F8734F"/>
<path d="M182.372 141.295C181.882 141.94 181.087 142.996 180.368 143.358C176.381 145.365 171.511 146.203 167.289 147.706L166.351 147.241C171.848 144.745 176.45 142.635 182.372 141.295Z" fill="#FDFCFB"/>
<path d="M3.18065 203.095C6.14479 203.086 9.86287 205.498 11.6227 207.766C9.53264 207.72 5.19712 206.763 2.97877 206.337C3.01722 205.293 3.11408 204.147 3.18065 203.095Z" fill="#D1E6F0"/>
<path d="M160.989 199.298C162.025 199.245 163.284 200.752 164.02 201.471C158.677 201.906 154.764 202.448 149.522 203.363C148.618 203.51 147.468 203.56 146.53 203.626C148.833 202.813 151.26 202.338 153.596 201.64C156.069 200.902 158.518 200.064 160.989 199.298Z" fill="#DB402F"/>
<path d="M183.197 46.1669C184.189 47.4483 186.602 52.7222 186.189 54.2251L185.785 54.3493C184.699 54.5106 183.507 54.5764 182.404 54.6603C182.507 51.844 182.68 48.9397 183.197 46.1669Z" fill="#D85D50"/>
<path d="M21.1441 125.344C21.9514 125.197 22.6409 124.942 23.4148 124.693C29.7329 122.662 35.9486 120.297 42.2456 118.214L42.3852 118.803L41.974 119.165L42.0651 119.38C34.9084 122.027 27.7265 123.697 21.0083 126.069L21.1441 125.344Z" fill="#5FB4D4"/>
<path d="M214.083 25.1547C214.72 25.0581 215.155 24.9449 215.648 25.3138C214.984 26.5793 211.723 28.9531 210.476 29.9421C210.317 30.1127 210.192 30.129 209.954 30.2381C209.483 29.723 209.086 27.2455 208.88 26.3666C210.863 25.7796 212.031 25.4596 214.083 25.1547Z" fill="#FDFCFB"/>
<path d="M199.23 9.67002C201.501 9.54628 206.467 8.94296 208.142 10.2685L207.93 10.9062C205.811 11.8678 201.809 11.3123 199.466 10.9802C198.716 10.7404 197.764 10.6424 197.276 10.2135C197.762 9.76493 198.54 9.76396 199.23 9.67002Z" fill="#D5896D"/>
<path d="M190.513 129.781C192.176 129.92 198.636 130.309 199.732 130.914C199.458 131.32 198.819 131.306 198.201 131.425C195.13 131.77 192.323 132.395 189.321 133.054C189.816 131.889 190.123 130.989 190.513 129.781Z" fill="#DB402F"/>
<path d="M4.80109 165.66C9.10057 167.612 9.94776 169.05 12.6509 172.841L12.2111 173.697C8.80446 170.991 6.45945 169.711 4.80109 165.66Z" fill="#EE7540"/>
<path d="M109.86 104.296C110.476 104.539 110.578 104.544 111.238 104.474L111.361 104.758L110.76 104.976L111.173 105.219C108.797 106.29 102.94 107.664 100.013 108.618C99.0741 108.503 98.4038 108.695 97.4768 108.871L99.0546 107.839C102.322 106.727 106.639 105.118 109.86 104.296Z" fill="#1894D0"/>
<path d="M77.1157 94.6025L77.4491 94.6866C76.0724 95.821 71.0889 98.2511 69.3452 99.0812L69.0383 98.9238C68.8381 98.0985 69.1931 96.7208 69.3623 95.8157C71.9505 95.4356 74.5352 95.0312 77.1157 94.6025Z" fill="#FDFCFB"/>
<path d="M249.413 12.2103C249.865 14.8523 249.485 18.2795 246.748 19.6003L246.258 19.5061C245.936 18.4203 246.508 17.496 246.974 16.4198C247.43 15.4236 247.339 14.531 247.325 13.4462L247.37 12.6699C248.421 12.9594 248.543 12.7369 249.413 12.2103Z" fill="#F6A560"/>
<path d="M134.868 174.623C136.377 174.03 144.518 170.678 145.55 170.739C146.218 171.194 146.023 170.92 146.23 171.749C146.06 172.216 146.098 172.437 145.607 172.605C142.861 173.55 138.449 174.028 135.839 175.101L134.868 174.623Z" fill="#1894D0"/>
<path d="M86.5924 165.073C86.963 165.416 87.6024 166.046 87.9783 166.329C87.4423 167.238 87.3959 167.358 87.282 168.406C86.6934 169.605 84.7964 171.487 83.8261 172.588C83.6966 171.7 83.5629 171.781 82.8643 171.425C84.0268 169.262 85.2705 167.143 86.5924 165.073Z" fill="#D1E6F0"/>
<path d="M266.958 32.9272C268.283 32.9128 268.665 33.5022 269.681 34.421C268.448 35.5219 267.362 36.5896 266.192 37.7487L264.85 39.105L264.826 35.5188C265.658 34.2314 265.85 33.9793 266.958 32.9272Z" fill="#FDFCFB"/>
<path d="M38.4771 176.355C39.1553 176.714 41.0754 178.847 41.7217 179.524C41.9445 181.272 42.2341 183.094 42.2185 184.85C39.5855 183.416 38.9676 178.992 38.4771 176.355Z" fill="#D78446"/>
<path d="M87.4778 84.2732C91.6408 83.1737 96.7264 80.9918 101.225 79.7407C101.032 80.3777 101.037 80.4548 100.619 80.951L100.7 81.1302C97.3109 82.7042 89.6801 83.8354 87.5221 84.9854C87.336 84.5937 87.4072 84.7958 87.4778 84.2732Z" fill="#DB402F"/>
<path d="M224.036 17.8024C226.177 18.0158 228.107 19.1669 226.872 21.548C225.898 21.4903 226.487 19.9067 225.252 18.974C222.961 18.8546 222.572 20.8568 222.437 22.6172C222.538 23.8815 223.079 24.7069 223.565 25.9128L223.406 26.2496C221.904 25.6326 221.06 23.3323 221.332 21.8025C221.688 19.7904 222.461 18.9814 224.036 17.8024Z" fill="#EAEDEE"/>
<path d="M262.579 31.4944C263.55 31.475 264.942 31.381 265.295 32.3957C265.007 33.4197 263.87 34.2612 263.12 35.7991L262.995 36.0586C262.651 36.6552 262.776 36.6783 262.293 36.8297C261.168 35.0521 260.794 32.9094 262.579 31.4944Z" fill="#FDFCFB"/>
<path d="M100.013 108.618C99.4135 108.897 86.4442 112.595 86.3759 112.592C87.9304 110.77 96.619 108.331 99.0547 107.839L97.4768 108.871C98.4038 108.695 99.0741 108.503 100.013 108.618Z" fill="#22608F"/>
<path d="M157.163 193.082C157.661 193.264 157.865 193.282 158.165 193.718L158.059 194.089C156.733 195.146 150.39 195.942 148.567 196.188L147.817 196.03C148.512 195.182 155.692 193.381 157.163 193.082Z" fill="#DB402F"/>
<path d="M39.685 90.9879C42.1461 89.9908 50.8448 87.0061 53.4313 86.3706L53.7827 86.93L54.3048 86.9888C51.8425 88.1311 41.5924 90.6844 40.5483 91.4586L39.685 90.9879Z" fill="#8295A9"/>
<path d="M69.9786 135.469C72.1729 134.617 80.0568 131.926 82.15 131.596C81.5868 132.235 81.1559 132.224 80.258 132.544C82.0019 132.562 82.4175 132.002 83.6665 132.145C81.3989 133.137 74.7782 134.835 72.1707 135.54C71.1291 135.406 71.0464 135.952 69.9786 135.469Z" fill="#892B25"/>
<path d="M22.6595 177.018C24.3414 177.405 26.6975 181.74 26.3456 182.953C24.4075 181.789 20.5723 179.728 22.6595 177.018Z" fill="#FDFCFB"/>
<path d="M59.2682 204.297L59.3977 204.446C59.809 206.603 57.2116 212.39 56.1106 214.47L55.877 214.189C55.4855 211.408 57.9007 206.732 59.2682 204.297Z" fill="#1894D0"/>
<path d="M222.916 30.4351C223.795 31.069 223.605 33.5416 224.043 35.0317C224.843 37.7439 229.415 41.279 230.239 43.107C228.48 42.2074 225.795 39.3384 224.658 37.7117C222.786 35.0353 222.43 33.5161 222.916 30.4351Z" fill="#7F7474"/>
<path d="M60.45 218.721C63.3867 218.821 66.6657 222.664 66.5051 225.593C65.8973 225.105 60.6526 219.49 60.45 218.721Z" fill="#D85D50"/>
<path d="M101.993 219.226C104.931 218.512 112.717 217.276 115.711 217.676C113.919 218.17 103.918 220.113 102.022 220.231C102.771 219.918 103.781 219.581 104.563 219.296C103.67 219.299 102.881 219.269 101.993 219.226Z" fill="#976848"/>
<path d="M63.1832 126.421C61.1595 127.19 50.3629 130.195 48.6666 130.215C52.9889 128.535 58.5869 126.856 63.0827 125.499C62.9775 126.167 62.9157 125.873 63.1832 126.421Z" fill="#8295A9"/>
<path d="M48.9824 50.7677C50.6477 49.9362 59.0762 46.7461 60.7675 46.5419C61.0987 46.9386 61.2131 47.1543 61.7008 47.3302C56.9583 48.8208 53.8519 49.9064 48.9824 50.7677Z" fill="#22608F"/>
<path d="M75.456 55.1964C77.4119 54.4162 81.7121 52.5082 83.5754 52.5623L84.0071 52.7939L84.0217 53.3691C82.8042 54.4246 78.5778 55.1202 76.8324 55.7713C76.1741 55.6522 76.0489 55.5373 75.456 55.1964Z" fill="#DB402F"/>
<path d="M65.8046 208.987C66.2817 208.629 66.249 208.581 66.4441 208.031C66.1423 206.912 64.9293 206.513 64.1184 205.189L64.3996 204.918C65.4229 204.74 66.9248 205.68 67.9487 206.189L68.8158 206.857L66.627 210.001L65.8046 208.987Z" fill="#D85D50"/>
<path d="M221.514 41.6166C221.974 41.5875 222.178 41.617 222.627 41.6512L222.808 41.9897C222.055 43.2016 217.919 45.0404 216.393 45.8011L215.787 46.0188L215.689 45.711C216.885 43.9325 219.597 42.4621 221.514 41.6166Z" fill="#D85D50"/>
<path d="M174.167 180.106C173.884 179.953 173.6 179.796 173.321 179.635C172.341 179.07 172.216 178.94 171.958 177.992L172.266 177.629C173.182 177.411 173.775 177.811 174.674 178.206C175.475 178.512 176.664 178.928 177.407 179.277L176.972 181.023C176.08 180.6 175.126 180.02 174.167 180.106Z" fill="#F3B9A9"/>
<path d="M103.891 89.6977C101.552 90.7098 94.5655 92.8157 92.1239 92.6557L92.1924 92.4681C95.7891 91.5204 99.8489 89.5747 102.813 88.9159L101.669 89.6314L101.635 89.9012C102.457 89.8681 103.085 89.7975 103.891 89.6977Z" fill="#294A5E"/>
<path d="M230.198 70.7468C231.525 71.6474 239.413 77.8288 239.874 78.8502C237.437 78.3291 231.445 72.9794 230.198 70.7468Z" fill="#A09EA7"/>
<path d="M262.055 54.2765L262.37 54.5896C262.613 56.1744 260.661 60.6413 259.885 62.1552C258.647 60.9306 260.897 55.6931 262.055 54.2765Z" fill="#22608F"/>
<path d="M259.053 29.8663C259.907 29.9363 260.556 30.0069 261.104 30.6679C260.998 31.5643 259.765 32.6143 259.08 33.3243C258.688 33.5636 258.376 33.3435 258.054 33.1787C257.157 31.4408 257.659 30.9363 259.053 29.8663Z" fill="#FDFCFB"/>
<path d="M125.343 196.184C128.663 194.297 131.555 193.609 135.137 192.38L134.265 193.063L134.305 193.305L135.275 193.435C133.7 194.085 127.005 195.988 125.343 196.184Z" fill="#512F35"/>
<path d="M117.249 210.366C118.172 210.274 118.73 210.08 119.265 210.878C118.908 211.964 118.128 212.247 117.158 212.693L117.001 212.711C116.011 212.822 115.633 212.936 114.949 212.39L115.061 211.831C115.693 211.036 116.345 210.801 117.249 210.366Z" fill="#FDFCFB"/>
<path d="M178.856 170.304C181.433 167.548 183.646 165.624 186.785 163.569L187.028 164.647C186.341 165.333 179.808 169.779 178.856 170.304Z" fill="#DB402F"/>
<path d="M81.5027 31.2108C84.0232 30.3297 87.0376 29.23 89.6282 28.6981L90.629 29.2788C88.0463 30.0263 84.9146 30.8432 82.4081 31.6983L81.5027 31.2108Z" fill="#A9C4D7"/>
<path d="M218.714 84.6477C219.315 84.8841 219.551 85.1549 219.765 85.7121C219.037 86.6439 214.922 86.9824 213.461 87.1999L212.742 87.2311C213.225 86.7489 217.763 85.0343 218.714 84.6477Z" fill="#1894D0"/>
<path d="M12.0692 128.523C14.3494 127.624 18.9324 125.724 21.144 125.344L21.0083 126.069C19.4314 127.1 13.9852 128.44 12.0692 128.523Z" fill="#294A5E"/>
<path d="M171.485 76.7307C172.446 79.1055 173.374 81.4921 174.273 83.8905C173.076 82.3825 170.939 79.4659 170.449 77.6795C171.283 77.3635 170.997 77.5956 171.485 76.7307Z" fill="#5FB4D4"/>
<path d="M189.241 10.1388C191.948 9.64913 196.468 9.52179 199.23 9.67004C198.54 9.76398 197.762 9.76494 197.276 10.2135C197.764 10.6424 198.716 10.7404 199.466 10.9802C197.8 11.0055 190.962 10.3488 189.241 10.1388Z" fill="#7F7474"/>
<path d="M65.3945 211.163C64.592 210.04 63.8547 210.28 62.9253 208.561L63.1658 208.268C64.3541 208.358 64.7059 208.546 65.8045 208.987L66.627 210.001L65.5866 211.728L65.3945 211.163Z" fill="#EE7540"/>
<path d="M215.162 96.8293C213.276 97.632 211.374 98.208 209.336 98.4429L209.211 98.2529C210.377 97.5785 213.002 96.218 214.328 96.0604L214.297 96.5833C214.684 96.7164 214.758 96.7538 215.162 96.8293Z" fill="#294A5E"/>
<path d="M65.3946 211.163L65.5866 211.728C65.2418 212.378 64.5479 213.761 64.1408 214.298L63.7178 214.306C62.7835 213.404 62.1897 212.418 61.4761 211.341C63.1037 211.67 64.241 212.416 65.3946 211.163Z" fill="#D85D50"/>
<path d="M67.3896 157.758C69.3049 156.619 73.0549 155.074 75.1868 154.418L76.0958 155.017C72.9473 156.144 70.6532 156.998 67.3896 157.758Z" fill="#5FB4D4"/>
<path d="M187.499 4.8865C186.074 5.03331 177.604 5.28751 176.703 4.5667C177.758 4.20389 181.75 4.12148 182.959 4.20846L183.122 4.52922C184.36 4.69549 186.588 4.70774 187.499 4.8865Z" fill="#8295A9"/>
<path d="M81.728 213.036C80.3097 214.27 77.0415 216.284 76.1551 217.235L75.0955 215.884C77.2461 214.953 79.5651 213.894 81.728 213.036Z" fill="#BB6465"/>
<path d="M224.898 101.426C223.045 102.058 220.558 103.006 218.654 103.118L218.746 102.859C220.664 101.758 221.817 101.432 223.961 100.849L224.898 101.426Z" fill="#8295A9"/>
<path d="M259.013 80.9066C259.589 81.5986 259.467 81.2718 259.515 82.1281C259.32 82.4799 259.195 82.7848 258.919 83.0611L258.782 82.9504C258.566 83.0772 256.124 85.4631 255.215 86.1594C256.28 84.0246 257.828 82.9263 258.758 81.0962L259.013 80.9066Z" fill="#9B5546"/>
<path d="M63.7177 214.305L64.1407 214.298C63.7614 214.962 63.2363 216.493 62.944 217.276C61.9454 216.513 60.9985 215.52 60.1001 214.627C61.7697 214.862 62.4624 215.198 63.7177 214.305Z" fill="#D85D50"/>
<path d="M0 183.909C1.71676 183.715 3.87262 185.106 4.24107 186.864C3.13574 186.494 0.35907 185.036 0 183.909Z" fill="#DB402F"/>
<path d="M40.5483 91.4584C38.3878 92.0672 35.8542 92.8683 33.6731 93.1496L33.7572 92.9718C35.4405 92.2527 37.881 91.3517 39.685 90.9877L40.5483 91.4584Z" fill="#294A5E"/>
<path d="M63.2435 165.009C64.9331 164.296 66.4345 163.632 68.1957 163.099L68.8228 163.872C68.2885 164.05 65.5063 164.937 65.1778 165.117C64.3611 165.221 63.9813 165.354 63.2435 165.009Z" fill="#892B25"/>
<path d="M98.8134 53.5375C100.425 54.314 99.4111 56.6425 99.0588 58.0659C98.7994 58.0514 98.8276 57.9878 98.5408 57.7732C98.0525 56.3335 98.4353 54.9666 98.8134 53.5375Z" fill="#BB6465"/>
<path d="M204.895 15.4906C205.82 15.5173 205.933 15.3813 206.676 15.8169L206.765 16.2638C205.724 17.2407 203.823 16.7655 202.568 16.3988C203.15 15.7085 203.955 15.684 204.895 15.4906Z" fill="#BDB8C4"/>
<path d="M111.27 180.941L111.539 181.073L111.63 181.431C110.833 182.688 109.538 183.426 108.264 184.125L108.056 184.092L107.866 183.796C108.535 182.486 110.039 181.674 111.27 180.941Z" fill="#D85D50"/>
<path d="M108.86 193.28C109.74 192.163 113.033 191.092 114.384 190.655L114.995 191.23C112.811 192.049 111.098 192.629 108.86 193.28Z" fill="#8295A9"/>
<path d="M81.5712 203.499L81.2725 204.395C80.8922 204.866 79.0486 207.232 78.7628 207.499L78.0324 206.896C78.4689 206.235 80.8362 204.151 81.5712 203.499Z" fill="#892B25"/>
<path d="M68.1957 163.099C69.2429 162.687 70.2896 162.325 71.3507 161.952L71.9013 162.939C70.9484 163.223 69.7382 163.547 68.8228 163.872L68.1957 163.099Z" fill="#DB402F"/>
<path d="M82.1228 86.2373C83.579 85.5612 85.9221 84.5061 87.4778 84.2731C87.4072 84.7957 87.3361 84.5936 87.5221 84.9852C86.7676 85.5604 83.2209 86.0508 82.1228 86.2373Z" fill="#512F35"/>
<path d="M19.6496 216.387C21.3325 216.519 23.3328 217.02 25.0095 217.385L24.7223 218.396C22.8034 217.788 21.486 217.201 19.6496 216.387Z" fill="#DB402F"/>
<path d="M14.2215 184.256C16.0138 185.529 17.1797 186.52 18.7039 188.081L18.2384 188.762C16.7598 187.465 15.4574 185.788 14.2215 184.256Z" fill="#892B25"/>
<path d="M65.844 137.116C67.1649 136.307 68.4496 135.735 69.9786 135.469C71.0465 135.952 71.1292 135.406 72.1708 135.54C70.4966 136.313 67.7086 136.752 65.844 137.116Z" fill="#512F35"/>
<path d="M174.581 110.29L178.32 110.025L178.061 111.411C176.792 111.126 175.994 110.907 174.698 110.887L174.581 110.29Z" fill="#D5896D"/>
<path d="M76.875 32.9791C78.5552 32.1023 79.6499 31.5901 81.5027 31.2107L82.4081 31.6982C81.8659 31.9152 77.6513 32.8071 76.875 32.9791Z" fill="#5C6A73"/>
<path d="M110.741 205.844C111.761 205.478 113.352 204.81 114.363 204.795C113.877 205.513 111.83 206.257 110.97 206.61L110.741 205.844Z" fill="#976848"/>
<path d="M128.226 15.8109C129.252 15.1535 131.277 14.4916 132.488 14.0596C130.961 15.1523 130.173 15.6857 128.493 16.5891L128.226 15.8109Z" fill="#A9C4D7"/>
<path d="M71.6081 56.655C73.0855 55.9935 73.9103 55.6588 75.4559 55.1965C76.0489 55.5375 76.1741 55.6523 76.8324 55.7715C75.255 56.1295 73.2354 56.3957 71.6081 56.655Z" fill="#892B25"/>
<path d="M199.285 15.5758L204.895 15.4905C203.955 15.6839 203.15 15.7084 202.568 16.3987C201.439 16.2577 200.376 15.8999 199.285 15.5758Z" fill="#A09EA7"/>
<path d="M65.1778 165.117C63.6442 165.662 62.5773 166.181 60.9478 166.02C61.6582 165.346 62.2764 165.27 63.2435 165.009C63.9814 165.354 64.3611 165.221 65.1778 165.117Z" fill="#512F35"/>
<path d="M72.3301 199.359C73.292 197.819 73.9135 197.057 75.0553 195.684L75.8889 196.143C74.6138 197.391 73.7193 198.217 72.3301 199.359Z" fill="#DB402F"/>
<path d="M143.203 120.811C143.72 121.588 144.253 122.418 144.789 123.174C143.952 122.751 142.686 122.159 141.969 121.622L143.203 120.811Z" fill="#1894D0"/>
<path d="M162.943 148.761C164.2 148.127 165.039 147.742 166.351 147.241L167.289 147.706C165.856 148.23 164.462 148.637 162.943 148.761Z" fill="#BDB8C4"/>
<path d="M78.0324 206.896L78.7628 207.499L77.7286 208.844L77.0256 207.922L78.0324 206.896Z" fill="#DB402F"/>
<path d="M12.6509 172.842C13.3164 173.772 13.9555 174.656 14.5669 175.624C13.8396 175.038 12.8835 174.311 12.2111 173.697L12.6509 172.842Z" fill="#DB402F"/>
<path d="M132.451 176.005C133.48 175.234 133.679 175.091 134.868 174.623L135.839 175.101C134.884 175.446 133.473 175.752 132.451 176.005Z" fill="#22608F"/>
<path d="M135.295 135.549C136.442 136.454 137.024 136.899 137.715 138.251C137.239 137.87 135.254 136.327 134.981 135.972L135.295 135.549Z" fill="#163C60"/>
<path d="M32.6965 185.513L34.6565 188.198L34.0172 188.663C33.5036 187.845 33.0474 186.46 32.6965 185.513Z" fill="#9B5546"/>
<path d="M81.5712 203.499L82.2105 202.818L82.5028 202.848C82.1952 203.794 82.1113 203.645 81.2725 204.395L81.5712 203.499Z" fill="#252933"/>
<path d="M174.698 110.887C173.989 110.891 174.011 110.91 173.357 110.664C173.711 110.261 173.872 110.38 174.581 110.29L174.698 110.887Z" fill="#715E6D"/>
<path d="M931.195 86.9196C944.397 86.7177 960.887 85.7089 973.709 87.6804C1002.58 92.1263 1003.95 127.624 986.567 145.32C983.589 148.352 981.217 149.924 977.666 152.184C966.241 158.74 955.438 158.119 942.853 158.092C934.125 158.036 925.397 158.064 916.673 158.175C918.091 152.125 919.248 145.989 920.417 139.884C923.802 122.193 927.975 104.623 931.195 86.9196ZM964.701 102.937C959.513 102.252 953.6 102.589 948.278 102.621C946.104 115.582 942.691 128.677 940.394 141.789C949.474 141.86 958.198 142.806 966.399 138.737C972.501 134.454 975.634 130.027 977.126 122.557C979.011 113.128 974.897 104.291 964.701 102.937Z" fill="#FDFCFB"/>
<path d="M446.196 85.8038C457.103 84.9051 467.917 85.8749 476.67 93.3252C482.528 98.3331 486.139 105.479 486.701 113.163C487.642 124.778 483.869 136.283 476.234 145.091C469.714 152.466 458.914 158.412 449.015 159.018C438.389 159.631 428.966 159.584 419.807 153.131C413.448 148.65 409.088 142.078 407.94 134.374C406.394 123.998 408.92 112.256 415.207 103.836C423.392 92.8782 433.056 87.8742 446.196 85.8038ZM449.08 102.035C442.577 102.93 436.167 105.404 432.627 111.053C423.351 125.859 426.432 142.058 445.627 142.481C469.794 140.724 476.092 101.501 449.08 102.035Z" fill="#FDFCFB"/>
<path d="M534.837 85.4475C557.495 85.0278 573.126 97.2366 570.967 120.847C568.882 143.653 551.385 158.42 529.111 159.239C510.911 159.457 493.568 151.987 492.077 131.639C491.279 120.198 495.062 108.911 502.592 100.257C510.858 90.9224 522.566 86.1917 534.837 85.4475ZM547.229 132.233C555.542 117.514 550.644 100.23 531.402 102.395C506.603 107.715 504.476 146.254 532.987 142.196C539.145 140.672 544.048 137.866 547.229 132.233Z" fill="#FDFCFB"/>
<path d="M743.283 86.7815C753.23 86.7776 767.225 86.2035 773.937 93.3372C789.618 110.004 775.077 135.95 753.999 138.278C750.823 138.63 748.577 138.828 745.639 138.943C740.685 139.125 734.955 138.915 729.93 138.852C728.267 145.34 726.991 151.535 725.645 158.099L705.497 158.004C710.696 134.659 714.628 109.869 720.608 86.801L743.283 86.7815ZM758.212 105.974C754.724 101.16 743.195 102.308 737.461 102.335C735.782 109.247 734.357 116.053 732.773 122.965C739.061 123.084 748.32 124.018 753.721 121.338C758.596 117.854 762.398 111.75 758.212 105.974Z" fill="#FDFCFB"/>
<path d="M862.739 86.8646C881.648 86.6785 900.557 86.6587 919.462 86.8092C918.511 91.9556 917.513 97.0941 916.468 102.225C904.133 102.332 891.793 102.324 879.458 102.197C878.765 106.148 877.89 110.249 877.106 114.196L909.574 114.311C908.599 119.263 907.606 124.081 906.976 129.097C897.242 129.097 883.561 128.582 874.302 129.002C873.439 129.897 873.451 131.286 873.269 132.612C872.512 135.748 871.93 138.919 871.316 142.086C884.317 142.22 897.349 141.947 910.338 142.308C909.023 147.517 908.31 152.838 906.968 158.139L848.064 158.087L858.09 109.065C859.635 101.587 860.866 94.2834 862.739 86.8646Z" fill="#FDFCFB"/>
<path d="M794.43 86.7933C812.61 86.338 832.552 86.6824 850.871 86.7973C849.909 91.9872 848.879 97.1653 847.778 102.328C835.617 102.035 823.31 102.427 811.022 102.138C810.337 106.152 809.593 110.158 808.797 114.153L841.015 114.319C840.215 119.006 838.924 124.434 837.93 129.141C827.48 128.677 816.313 129.117 805.633 128.883L804.987 132.129L802.975 142.133L841.736 142.252C840.373 146.884 839.098 153.254 837.982 158.083C818.982 157.731 798.889 158.067 779.79 158.091C781.734 148.265 783.837 138.471 785.773 128.646C788.47 114.984 790.917 100.241 794.43 86.7933Z" fill="#FDFCFB"/>
<path d="M674.241 85.4156C684.363 83.8836 697.197 86.7418 706.273 91.4488C704.064 96.2706 700.848 101.52 698.428 106.54C690.675 101.785 674.625 97.6166 667.034 104.446C660.551 110.277 674.586 113.737 678.284 114.715C688.865 117.51 700.84 120.55 701.177 133.943C701.363 139.976 699.09 145.827 694.872 150.15C687.646 157.517 677.468 159.176 667.683 159.326C656.354 159.303 644.669 158.701 635.718 150.712C638.578 146.132 641.593 140.696 644.345 135.985C653.435 141.987 662.155 143.61 672.808 143.143C675.449 143.028 681.785 139.726 680.514 137.094C677.603 131.064 666.076 130.304 660.365 127.854C657.17 126.48 654.354 125.645 651.596 123.452C642.359 116.666 643.665 105.079 650.126 96.7695C655.752 89.5328 665.402 86.4964 674.241 85.4156Z" fill="#EE5A2F"/>
<path d="M354.867 86.8566C373.315 86.6389 391.765 86.6349 410.214 86.8447L407.294 102.264C395.657 102.066 383.258 102.284 371.542 102.26C370.406 106.896 369.417 112.636 368.466 117.391C378.924 117.557 389.923 117.411 400.418 117.415C399.251 121.46 398.416 125.764 397.725 129.912L397.218 133.254C387.077 133.079 374.863 133.57 364.915 132.905C363.956 139.968 361.257 150.736 359.741 158.111C352.995 158.044 346.248 158.012 339.502 158.02C340.291 152.553 342.419 144.406 343.613 138.618C347.106 121.31 350.858 104.054 354.867 86.8566Z" fill="#FDFCFB"/>
<path d="M580.016 86.924C600.999 86.3935 623.116 86.734 644.154 86.8685C643.337 91.5558 642.056 98.159 640.831 102.644C634.418 102.213 625.75 102.367 619.166 102.304C617.205 109.643 616.251 117.81 614.512 125.253C613.424 129.912 612.433 134.726 611.493 139.41C610.194 145.245 609.203 152.01 607.937 158.095H587.778C591.668 139.6 594.972 121.013 598.79 102.581L576.607 102.399C577.671 97.1218 579.09 92.395 580.016 86.924Z" fill="#FDFCFB"/>
<path d="M287.529 102.597C291.874 102.597 296.331 102.545 300.666 102.64C304.076 106.073 312.041 117.145 315.102 121.524C313.805 123.135 310.842 127.058 309.563 128.408C306.756 132.224 302.68 137.889 298.971 140.645C294.648 140.744 290.323 140.744 286 140.649C289.622 136.251 294.673 129.125 298.54 125.36C299.662 124.141 300.762 123.234 301.127 121.67C300.375 119.596 295.172 113.693 293.614 111.492C291.548 108.567 289.513 105.641 287.529 102.597Z" fill="#1894D0"/>
<path d="M1027.96 102.664C1032.3 102.704 1036.85 102.589 1041.21 102.545C1044.85 106.29 1052.08 116.955 1055.54 121.769C1050 127.842 1045.03 134.406 1039.41 140.348C1038.29 141.219 1028.31 140.72 1026.14 140.673C1028.31 137.478 1040.5 124.133 1040.89 122.003C1041.09 120.898 1040.66 119.881 1040.13 118.939C1038.77 116.516 1036.42 114.339 1034.69 112.145C1032.29 109.105 1030.14 105.867 1027.96 102.664Z" fill="#1894D0"/>
<path d="M1014 102.866L1020.3 102.716C1024.46 107.672 1030.74 116.136 1034.19 121.563C1029.28 128.416 1023.9 134.912 1018.07 141.005L1013.22 141.084C1010.64 141.08 1007.87 140.926 1005.27 140.831C1009.64 135.142 1016.53 126.947 1021.27 121.682C1016.39 115.677 1011.72 109.501 1007.26 103.175C1009.44 103.143 1011.81 102.973 1014 102.866Z" fill="#DD2A27"/>
<path d="M308.999 102.815L322.031 103.092C325.636 107.363 332.249 116.936 335.403 121.769C330.794 127.525 324.541 135.665 319.678 140.958C315.906 141.163 310.858 141.009 307.106 140.673C312.222 134.315 317.426 128.028 322.716 121.813C319.713 117.518 310.516 106.488 308.999 102.815Z" fill="#DB402F"/>
</svg>
